<?xml version="1.0" standalone="yes"?><!DOCTYPE svg PUBLIC "-//W3C//DTD SVG 1.1//EN" "http://www.w3.org/Graphics/SVG/1.1/DTD/svg11.dtd"[
<!ENTITY E8 'stroke:none;opacity:1;fill:rgb(68,154,223);'><!ENTITY E37 'stroke:none;opacity:1;fill:rgb(91,178,126);'><!ENTITY E45 'matrix(1.00 0.00 0.00 1.00 84.00 4.00 ) '><!ENTITY E15 'matrix(1.00 0.00 0.00 1.00 244.00 164.00 ) '><!ENTITY E7 'matrix(1.00 0.00 0.00 1.00 244.00 84.00 ) '><!ENTITY E5 'matrix(1.00 0.00 0.00 1.00 0.00 0.00 ) '><!ENTITY E32 'stroke:none;opacity:1;fill:rgb(155,91,179);'><!ENTITY E10 'stroke:none;fill-rule:evenodd;opacity:1;fill:rgb(255,255,255);'><!ENTITY E19 'stroke:rgb(169,169,169);fill:none;stroke-linecap:butt;stroke-miterlimit:9;opacity:1;stroke-width:2;stroke-linejoin:miter;'><!ENTITY E49 'matrix(1.00 0.00 0.00 1.00 84.00 244.00 ) '><!ENTITY E12 'M 5.5001 19.484 10.6493 19.484 16.2743 10.2485 19.3728 10.2485 M 14.6769 17.1481 16.3089 19.4828 19.2202 19.4828 M 5.500199 10.2437 10.7586 10.2437 12.1652 12.8707 '><!ENTITY E9 'M 19.156 13.888 19.156 10.3647 19.156 6.841399 25.2585 10.3647 22.2072 12.1264 z '><!ENTITY E11 'M 19.156 22.97 19.156 19.4467 19.156 15.9234 25.2585 19.4467 22.2072 21.2084 z '><!ENTITY E13 'stroke:rgb(255,255,255);fill:none;stroke-linecap:butt;stroke-miterlimit:9;opacity:1;stroke-width:2;stroke-linejoin:miter;'><!ENTITY E53 'matrix(1.00 0.00 0.00 1.00 4.00 4.00 ) '><!ENTITY E24 'stroke:none;opacity:1;fill:rgb(255,255,255);'><!ENTITY E31 'matrix(1.00 0.00 0.00 1.00 164.00 4.00 ) '><!ENTITY E23 'matrix(1.00 0.00 0.00 1.00 244.00 324.00 ) '><!ENTITY E36 'matrix(1.00 0.00 0.00 1.00 164.00 84.00 ) '><!ENTITY E30 'M 10.158 33.2 C 3.4054 31.7591 -1.861 26.4692 -3.271 19.71 '><!ENTITY E17 'matrix(1.00 0.00 0.00 1.00 244.00 244.00 ) '><!ENTITY E3 'stroke:none;opacity:1;fill:rgb(238,192,75);'><!ENTITY E1 'stroke:rgb(169,169,169);fill:none;stroke-linecap:butt;stroke-miterlimit:9;opacity:1;stroke-width:1;stroke-linejoin:miter;'><!ENTITY E26 'matrix(1.00 0.00 0.00 1.00 244.00 404.00 ) '><!ENTITY E28 'matrix(1.00 0.00 0.00 1.00 244.00 484.00 ) '><!ENTITY E40 'matrix(1.00 0.00 0.00 1.00 164.00 244.00 ) '><!ENTITY E42 'matrix(1.00 0.00 0.00 1.00 164.00 484.00 ) '><!ENTITY E35 'M 31.179 5.2 C 34.9985 11.0918 34.9814 18.682 31.13552 24.557 '>
]><svg width="316.8581" height="546.6504" id="SvgGdi_output" xmlns="http://www.w3.org/2000/svg" xmlns:xlink="http://www.w3.org/1999/xlink"><rect id="background" height="100.00%" style="fill:rgb(255,255,255);" width="100.00%" y="0.00" x="0.00" /><g style="shape-rendering:auto;" id="root_group"><line y1="19.00" style="&E1;" id="59" x2="240.00" y2="19.00" x1="198.00" /><line y1="99.00" style="&E1;" id="60" x2="240.00" y2="99.00" x1="198.00" /><line y1="99.00" style="&E1;" id="61" x2="240.00" y2="179.00" x1="198.00" /><line y1="259.00" style="&E1;" id="62" x2="240.00" y2="259.00" x1="198.00" /><line y1="259.00" style="&E1;" id="63" x2="240.00" y2="339.00" x1="198.00" /><line y1="419.00" style="&E1;" id="64" x2="240.00" y2="419.00" x1="198.00" /><line y1="499.00" style="&E1;" id="65" x2="240.00" y2="499.00" x1="198.00" /><line y1="19.00" style="&E1;" id="66" x2="160.00" y2="19.00" x1="118.00" /><line y1="259.00" style="&E1;" id="67" x2="160.00" y2="259.00" x1="118.00" /><line y1="259.00" style="&E1;" id="68" x2="160.00" y2="419.00" x1="118.00" /><line y1="19.00" style="&E1;" id="69" x2="80.00" y2="19.00" x1="38.00" /><ellipse id="70" cy="15.00" cx="15.00" rx="15.00" ry="15.00" style="&E3;" transform="matrix(1.00 0.00 0.00 1.00 244.00 4.00 ) " /><text id="71" transform="&E5;" x="244.00px" y="39.00px" style="stroke:none;clip-path:url(#73_text_clipper);font-family:Microsoft Sans Serif;fill:rgb(0,0,0);font-size:8.25pt;opacity:1;"><tspan dy="8.25pt" id="75">Start</tspan></text><text id="77" transform="&E5;" x="244.00px" y="51.45px" style="stroke:none;clip-path:url(#79_text_clipper);font-family:Microsoft Sans Serif;fill:rgb(0,0,0);font-size:8.25pt;opacity:1;"><tspan dy="8.25pt" id="81">Acquisition</tspan></text><ellipse id="83" cy="15.00" cx="15.00" transform="&E7;" rx="15.00" ry="15.00" style="&E8;" /><path d="&E9;" style="&E10;" transform="&E7;" id="84" /><path d="&E11;" style="&E10;" transform="&E7;" id="85" /><path d="&E12;" style="&E13;" transform="&E7;" id="86" /><text id="87" transform="&E5;" x="244.00px" y="119.00px" style="stroke:none;clip-path:url(#89_text_clipper);font-family:Microsoft Sans Serif;fill:rgb(0,0,0);font-size:8.25pt;opacity:1;"><tspan dy="8.25pt" id="91">AmplifierData</tspan></text><ellipse id="93" cy="15.00" cx="15.00" transform="&E15;" rx="15.00" ry="15.00" style="&E8;" /><path d="&E9;" style="&E10;" transform="&E15;" id="94" /><path d="&E11;" style="&E10;" transform="&E15;" id="95" /><path d="&E12;" style="&E13;" transform="&E15;" id="96" /><text id="97" transform="&E5;" x="244.00px" y="199.00px" style="stroke:none;clip-path:url(#99_text_clipper);font-family:Microsoft Sans Serif;fill:rgb(0,0,0);font-size:8.25pt;opacity:1;"><tspan dy="8.25pt" id="101">Clock</tspan></text><ellipse id="103" cy="15.00" cx="15.00" transform="&E17;" rx="15.00" ry="15.00" style="&E3;" /><path style="&E19;" transform="&E17;" id="104" d="M 1.5363 7.8 C 1.99103 6.9385 2.52798 6.1205 3.1403 5.3587 3.7527 4.5967 4.4403 3.8909 5.1968 3.254 5.95315 2.617 6.7782 2.049 7.665299 1.5627 M 0.4537992 19.4997 C 0.1435492 18.4956 -0.05714077 17.4835 -0.1564507 16.4769 -0.2551987 15.4701 -0.2516447 14.4684 -0.1525816 13.4844 -0.05334165 12.5007 0.1414284 11.5347 0.4251484 10.5993 M 7.892348 28.3993 C 7.030958 27.9447 6.212848 27.4077 5.450948 26.7954 4.689008 26.1831 3.983248 25.4954 3.346348 24.739 2.709558 23.9826 2.141548 23.1575 1.655148 22.2704 M 19.49415 29.4993 C 18.48995 29.8096 17.47785 30.0103 16.47125 30.1096 15.46445 30.2084 14.46285 30.2049 13.47895 30.1018 12.49507 30.0028 11.52915 29.8079 10.59365 29.5242 M 28.46365 22.0993 C 28.00892 22.9606 27.472 23.7788 26.85965 24.5407 26.24738 25.3026 25.55945 26.0084 24.80315 26.6453 24.0468 27.2822 23.22175 27.8502 22.33465 28.3365 M 29.54565 10.4995 C 29.85594 11.5037 30.05659 12.5157 30.15594 13.5224 30.25481 14.5292 30.25114 15.531 30.15199 16.5147 30.05279 17.4986 29.85802 18.4646 29.5743 19.4 M 22.10769 1.499998 C 22.96908 1.954698 23.7872 2.491698 24.5491 3.103898 25.31104 3.716298 26.0168 4.404098 26.65369 5.160398 27.29052 5.916898 27.85859 6.741898 28.34499 7.629098 M 10.50499 0.3999977 C 11.50919 0.08969772 12.52109 -0.1109023 13.52779 -0.2103023 14.53469 -0.3090023 15.53619 -0.3055023 16.52009 -0.2103023 17.50401 -0.1111023 18.46999 0.08369771 19.40549 0.3673977 " /><path style="&E10;" transform="&E17;" id="105" d="M 17.123 5.8594 17.123 10.1836 C 17.123 10.70128 17.50571 11.08204 18.02339 11.08204 L 22.12889 11.08204 z " /><path style="&E10;" transform="&E17;" id="106" d="M 12.084 18.254 C 13.1854 18.254 14.082 19.14872 14.082 20.2501 14.082 21.3515 13.18533 22.2481 12.084 22.2481 10.9826 22.2481 10.086 21.35143 10.086 20.2501 10.086 19.1487 10.98267 18.254 12.084 18.254 z M 17.7832 18.23837 C 18.8846 18.23837 19.7812 19.13504 19.7812 20.23637 19.7812 21.3377 18.88453 22.23437 17.7832 22.23437 16.68187 22.23437 15.7852 21.3377 15.7852 20.23637 15.7852 19.13504 16.68187 18.23837 17.7832 18.23837 z M 14.9414 13.67978 C 16.0428 13.67978 16.9394 14.57645 16.9394 15.67778 16.9394 16.77917 16.04273 17.67578 14.9414 17.67578 13.84007 17.67578 12.9434 16.77911 12.9434 15.67778 12.9434 14.57638 13.84007 13.67978 14.9414 13.67978 z M 10.8828 5.205175 C 9.175499 5.205175 7.765599 6.615075 7.765599 8.322375 L 7.765599 20.56638 C 7.765599 22.27368 9.175499 23.68158 10.8828 23.68158 L 19.6484 23.68158 C 21.3557 23.68158 22.7656 22.27357 22.7656 20.56638 L 22.7656 13.29878 18.0234 13.29878 C 16.3161 13.29878 14.9062 11.89078 14.9062 10.18358 L 14.9062 5.205076 z " /><text id="107" transform="&E5;" x="244.00px" y="279.00px" style="stroke:none;clip-path:url(#109_text_clipper);font-family:Microsoft Sans Serif;fill:rgb(0,0,0);font-size:8.25pt;opacity:1;"><tspan dy="8.25pt" id="111">Commutator</tspan></text><ellipse id="113" cy="15.00" cx="15.00" transform="&E23;" rx="15.00" ry="15.00" style="&E3;" /><rect id="114" height="8.00" style="&E24;" transform="&E23;" width="3.50" y="13.50" x="6.59" /><rect id="115" height="15.00" style="&E24;" transform="&E23;" width="3.50" y="6.50" x="11.04" /><rect id="116" height="10.00" style="&E24;" transform="&E23;" width="3.50" y="11.50" x="15.48" /><rect id="117" height="6.00" style="&E24;" transform="&E23;" width="3.50" y="15.50" x="19.92" /><text id="118" transform="&E5;" x="244.00px" y="359.00px" style="stroke:none;clip-path:url(#120_text_clipper);font-family:Microsoft Sans Serif;fill:rgb(0,0,0);font-size:8.25pt;opacity:1;"><tspan dy="8.25pt" id="122">RollingGraph</tspan></text><ellipse id="124" cy="15.00" cx="15.00" transform="&E26;" rx="15.00" ry="15.00" style="&E8;" /><path d="&E9;" style="&E10;" transform="&E26;" id="125" /><path d="&E11;" style="&E10;" transform="&E26;" id="126" /><path d="&E12;" style="&E13;" transform="&E26;" id="127" /><text id="128" transform="&E5;" x="244.00px" y="439.00px" style="stroke:none;clip-path:url(#130_text_clipper);font-family:Microsoft Sans Serif;fill:rgb(0,0,0);font-size:8.25pt;opacity:1;"><tspan dy="8.25pt" id="132">Clock</tspan></text><ellipse id="134" cy="15.00" cx="15.00" transform="&E28;" rx="15.00" ry="15.00" style="&E8;" /><path d="&E9;" style="&E10;" transform="&E28;" id="135" /><path d="&E11;" style="&E10;" transform="&E28;" id="136" /><path d="&E12;" style="&E13;" transform="&E28;" id="137" /><text id="138" transform="&E5;" x="244.00px" y="519.00px" style="stroke:none;clip-path:url(#140_text_clipper);font-family:Microsoft Sans Serif;fill:rgb(0,0,0);font-size:8.25pt;opacity:1;"><tspan dy="8.25pt" id="142">PercentUsed</tspan></text><path d="&E30;" style="&E19;" transform="&E31;" id="144" /><ellipse id="145" cy="15.00" cx="15.00" transform="&E31;" rx="15.00" ry="15.00" style="&E32;" /><text id="146" transform="&E5;" x="164.00px" y="39.00px" style="stroke:none;clip-path:url(#148_text_clipper);font-family:Microsoft Sans Serif;fill:rgb(0,0,0);font-size:8.25pt;opacity:1;"><tspan dy="8.25pt" id="150">Breakout</tspan></text><text id="152" transform="&E5;" x="164.00px" y="51.45px" style="stroke:none;clip-path:url(#154_text_clipper);font-family:Microsoft Sans Serif;fill:rgb(0,0,0);font-size:8.25pt;opacity:1;"><tspan dy="8.25pt" id="156">Board</tspan></text><path d="&E35;" style="&E19;" transform="&E36;" id="158" /><ellipse id="159" cy="15.00" cx="15.00" transform="&E36;" rx="15.00" ry="15.00" style="&E37;" /><text id="160" transform="&E5;" x="164.00px" y="119.00px" style="stroke:none;clip-path:url(#162_text_clipper);font-family:Microsoft Sans Serif;fill:rgb(0,0,0);font-size:8.25pt;opacity:1;"><tspan dy="8.25pt" id="164">Neuropixels</tspan></text><text id="166" transform="&E5;" x="164.00px" y="131.45px" style="stroke:none;clip-path:url(#168_text_clipper);font-family:Microsoft Sans Serif;fill:rgb(0,0,0);font-size:8.25pt;opacity:1;"><tspan dy="8.25pt" id="170">V2eData</tspan></text><ellipse id="172" cy="15.00" cx="15.00" transform="&E40;" rx="15.00" ry="15.00" style="&E8;" /><path d="&E9;" style="&E10;" transform="&E40;" id="173" /><path d="&E11;" style="&E10;" transform="&E40;" id="174" /><path d="&E12;" style="&E13;" transform="&E40;" id="175" /><text id="176" transform="&E5;" x="164.00px" y="279.00px" style="stroke:none;clip-path:url(#178_text_clipper);font-family:Microsoft Sans Serif;fill:rgb(0,0,0);font-size:8.25pt;opacity:1;"><tspan dy="8.25pt" id="180">Quaternion</tspan></text><line y1="419.00" style="&E1;" id="182" x2="198.00" y2="419.00" x1="160.00" /><path d="&E35;" style="&E19;" transform="&E42;" id="183" /><ellipse id="184" cy="15.00" cx="15.00" transform="&E42;" rx="15.00" ry="15.00" style="&E37;" /><text id="185" transform="&E5;" x="164.00px" y="519.00px" style="stroke:none;clip-path:url(#187_text_clipper);font-family:Microsoft Sans Serif;fill:rgb(0,0,0);font-size:8.25pt;opacity:1;"><tspan dy="8.25pt" id="189">Memory</tspan></text><text id="191" transform="&E5;" x="164.00px" y="531.45px" style="stroke:none;clip-path:url(#193_text_clipper);font-family:Microsoft Sans Serif;fill:rgb(0,0,0);font-size:8.25pt;opacity:1;"><tspan dy="8.25pt" id="195">MonitorData</tspan></text><path d="&E30;" style="&E19;" transform="&E45;" id="197" /><ellipse id="198" cy="15.00" cx="15.00" transform="&E45;" rx="15.00" ry="15.00" style="&E32;" /><text id="199" transform="&E5;" x="84.00px" y="39.00px" style="stroke:none;clip-path:url(#201_text_clipper);font-family:Microsoft Sans Serif;fill:rgb(0,0,0);font-size:8.25pt;opacity:1;"><tspan dy="8.25pt" id="203">Neuropixels</tspan></text><text id="205" transform="&E5;" x="84.00px" y="51.45px" style="stroke:none;clip-path:url(#207_text_clipper);font-family:Microsoft Sans Serif;fill:rgb(0,0,0);font-size:8.25pt;opacity:1;"><tspan dy="8.25pt" id="209">V2e</tspan></text><text id="211" transform="&E5;" x="84.00px" y="63.90px" style="stroke:none;clip-path:url(#213_text_clipper);font-family:Microsoft Sans Serif;fill:rgb(0,0,0);font-size:8.25pt;opacity:1;"><tspan dy="8.25pt" id="215">Headstage</tspan></text><path d="&E35;" style="&E19;" transform="&E49;" id="217" /><ellipse id="218" cy="15.00" cx="15.00" transform="&E49;" rx="15.00" ry="15.00" style="&E37;" /><ellipse id="219" cy="259.00" cx="84.00" rx="3.00" ry="3.00" style="&E19;" /><ellipse id="220" cy="259.00" cx="84.00" rx="3.00" ry="3.00" style="&E24;" /><text id="221" transform="&E5;" x="84.00px" y="279.00px" style="stroke:none;clip-path:url(#223_text_clipper);font-family:Microsoft Sans Serif;fill:rgb(0,0,0);font-size:8.25pt;opacity:1;"><tspan dy="8.25pt" id="225">Neuropixels</tspan></text><text id="227" transform="&E5;" x="84.00px" y="291.45px" style="stroke:none;clip-path:url(#229_text_clipper);font-family:Microsoft Sans Serif;fill:rgb(0,0,0);font-size:8.25pt;opacity:1;"><tspan dy="8.25pt" id="231">V2eBno055</tspan></text><text id="233" transform="&E5;" x="84.00px" y="303.90px" style="stroke:none;clip-path:url(#235_text_clipper);font-family:Microsoft Sans Serif;fill:rgb(0,0,0);font-size:8.25pt;opacity:1;"><tspan dy="8.25pt" id="237">Data</tspan></text><path d="&E35;" style="&E19;" transform="&E53;" id="239" /><ellipse id="240" cy="15.00" cx="15.00" transform="&E53;" rx="15.00" ry="15.00" style="&E37;" /><text id="241" transform="&E5;" x="4.00px" y="39.00px" style="stroke:none;clip-path:url(#243_text_clipper);font-family:Microsoft Sans Serif;fill:rgb(0,0,0);font-size:8.25pt;opacity:1;"><tspan dy="8.25pt" id="245">Create</tspan></text><text id="247" transform="&E5;" x="4.00px" y="51.45px" style="stroke:none;clip-path:url(#249_text_clipper);font-family:Microsoft Sans Serif;fill:rgb(0,0,0);font-size:8.25pt;opacity:1;"><tspan dy="8.25pt" id="251">Context</tspan></text></g><defs id="clips_hatches_and_gradients"><clipPath id="73_text_clipper"><rect x="244.00" y="39.00" width="58.66" height="27.65" id="74" /></clipPath><clipPath id="79_text_clipper"><rect x="244.00" y="51.45" width="58.66" height="27.65" id="80" /></clipPath><clipPath id="89_text_clipper"><rect x="244.00" y="119.00" width="71.86" height="13.83" id="90" /></clipPath><clipPath id="99_text_clipper"><rect x="244.00" y="199.00" width="32.06" height="13.83" id="100" /></clipPath><clipPath id="109_text_clipper"><rect x="244.00" y="279.00" width="65.99" height="13.83" id="110" /></clipPath><clipPath id="120_text_clipper"><rect x="244.00" y="359.00" width="69.98" height="13.83" id="121" /></clipPath><clipPath id="130_text_clipper"><rect x="244.00" y="439.00" width="32.06" height="13.83" id="131" /></clipPath><clipPath id="140_text_clipper"><rect x="244.00" y="519.00" width="69.16" height="13.83" id="141" /></clipPath><clipPath id="148_text_clipper"><rect x="164.00" y="39.00" width="49.01" height="27.65" id="149" /></clipPath><clipPath id="154_text_clipper"><rect x="164.00" y="51.45" width="49.01" height="27.65" id="155" /></clipPath><clipPath id="162_text_clipper"><rect x="164.00" y="119.00" width="63.62" height="27.65" id="163" /></clipPath><clipPath id="168_text_clipper"><rect x="164.00" y="131.45" width="63.62" height="27.65" id="169" /></clipPath><clipPath id="178_text_clipper"><rect x="164.00" y="279.00" width="59.78" height="13.83" id="179" /></clipPath><clipPath id="187_text_clipper"><rect x="164.00" y="519.00" width="65.43" height="27.65" id="188" /></clipPath><clipPath id="193_text_clipper"><rect x="164.00" y="531.45" width="65.43" height="27.65" id="194" /></clipPath><clipPath id="201_text_clipper"><rect x="84.00" y="39.00" width="63.62" height="41.48" id="202" /></clipPath><clipPath id="207_text_clipper"><rect x="84.00" y="51.45" width="63.62" height="41.48" id="208" /></clipPath><clipPath id="213_text_clipper"><rect x="84.00" y="63.90" width="63.62" height="41.48" id="214" /></clipPath><clipPath id="223_text_clipper"><rect x="84.00" y="279.00" width="63.62" height="41.48" id="224" /></clipPath><clipPath id="229_text_clipper"><rect x="84.00" y="291.45" width="63.62" height="41.48" id="230" /></clipPath><clipPath id="235_text_clipper"><rect x="84.00" y="303.90" width="63.62" height="41.48" id="236" /></clipPath><clipPath id="243_text_clipper"><rect x="4.00" y="39.00" width="42.71" height="27.65" id="244" /></clipPath><clipPath id="249_text_clipper"><rect x="4.00" y="51.45" width="42.71" height="27.65" id="250" /></clipPath></defs></svg>