<?xml version="1.0" encoding="utf-8"?>
<!-- Generator: Adobe Illustrator 23.0.6, SVG Export Plug-In . SVG Version: 6.00 Build 0)  -->
<svg version="1.1" id="Layer_1" xmlns="http://www.w3.org/2000/svg" xmlns:xlink="http://www.w3.org/1999/xlink" x="0px" y="0px"
	 viewBox="0 0 243.43 76.8" style="enable-background:new 0 0 243.43 76.8;" xml:space="preserve">
<style type="text/css">
	.st0{fill:#010101;}
	.st1{fill:none;stroke:#2FB6DF;stroke-width:3.5892;stroke-linecap:round;stroke-miterlimit:10;}
	.st2{fill:none;stroke:#D6AACD;stroke-width:3.5892;stroke-linecap:round;stroke-miterlimit:10;}
	.st3{opacity:0.69;fill:none;stroke:#B5B5B6;stroke-width:3.5892;stroke-linecap:round;stroke-miterlimit:10;}
	.st4{fill:none;stroke:#EA6A3F;stroke-width:3.5892;stroke-linecap:round;stroke-miterlimit:10;}
	.st5{fill:none;stroke:#FBD026;stroke-width:3.5892;stroke-linecap:round;stroke-miterlimit:10;}
	.st6{fill:#2FB6DF;}
	.st7{fill:none;stroke:#D15527;stroke-width:3.5892;stroke-linecap:round;stroke-miterlimit:10;}
</style>
<path class="st0" d="M74.09,48.42v-8.73c0-3.56,3.01-6.43,6.74-6.43c3.68,0,6.74,2.87,6.74,6.43v8.73c0,3.56-3.06,6.43-6.74,6.43
	C77.09,54.85,74.09,51.98,74.09,48.42 M77.2,39.69v8.73c0,1.93,1.61,3.46,3.63,3.46c1.97,0,3.63-1.53,3.63-3.46v-8.73
	c0-1.93-1.66-3.46-3.63-3.46C78.8,36.22,77.2,37.76,77.2,39.69"/>
<path class="st0" d="M91.02,63.25v-28.9c0-0.26,0.67-0.91,1.55-0.91h5.18c3.68,0,6.74,2.87,6.74,6.43v8.34
	c0,3.56-3.06,6.43-6.74,6.43h-3.63v9.18c0,0.84-0.72,1.48-1.55,1.48C91.69,65.32,91.02,64.68,91.02,63.25 M97.75,36.42h-3.63v15.26
	h3.63c1.97,0,3.63-1.53,3.63-3.46v-8.34C101.38,37.95,99.72,36.42,97.75,36.42"/>
<path class="st0" d="M107.33,48.42v-8.73c0-3.56,3-6.43,6.74-6.43c3.73,0,6.74,2.87,6.74,6.43v4.37c0,0.84-0.67,1.48-1.55,1.48
	h-8.81v2.88c0,1.39,0.88,2.67,2.23,3.21c1.35,0.54,2.9,0.25,3.94-0.74c0.62-0.59,1.61-0.59,2.23,0c0.62,0.54,0.62,1.48,0,2.08
	c-1.92,1.83-4.82,2.37-7.36,1.39C108.94,53.36,107.33,51.04,107.33,48.42 M110.44,39.69v2.88h7.25v-2.88c0-1.93-1.61-3.46-3.63-3.46
	C112.04,36.22,110.44,37.76,110.44,39.69"/>
<path class="st0" d="M123.85,53.36V34.94c0-0.84,0.67-1.49,1.55-1.49h5.18c3.68,0,6.74,2.87,6.74,6.43v13.48
	c0,0.84-0.73,1.48-1.55,1.48c-0.88,0-1.55-0.64-1.55-1.48V39.88c0-1.93-1.66-3.46-3.63-3.46h-3.63v16.94c0,0.84-0.73,1.48-1.55,1.48
	C124.52,54.85,123.85,54.2,123.85,53.36"/>
<path class="st0" d="M148.3,48.42v-8.73c0-3.56,3.01-6.43,6.74-6.43s6.73,2.87,6.73,6.43v4.37c0,0.84-0.67,1.48-1.55,1.48h-8.81
	v2.88c0,1.39,0.88,2.67,2.23,3.21s2.9,0.25,3.94-0.74c0.62-0.59,1.61-0.59,2.23,0c0.62,0.54,0.62,1.48,0,2.08
	c-1.92,1.83-4.82,2.37-7.36,1.39C149.91,53.36,148.3,51.04,148.3,48.42 M151.41,39.69v2.88h7.26v-2.88c0-1.93-1.61-3.46-3.63-3.46
	C153.02,36.22,151.41,37.76,151.41,39.69"/>
<path class="st0" d="M164.82,63.25v-28.9c0-0.26,0.67-0.91,1.56-0.91h5.18c3.68,0,6.74,2.87,6.74,6.43v8.34
	c0,3.56-3.06,6.43-6.74,6.43h-3.63v9.18c0,0.84-0.73,1.48-1.55,1.48C165.5,65.32,164.82,64.68,164.82,63.25 M171.56,36.42h-3.63
	v15.26h3.63c1.97,0,3.63-1.53,3.63-3.46v-8.34C175.19,37.95,173.53,36.42,171.56,36.42"/>
<path class="st0" d="M181.76,53.94V24.85c0-1.42,0.72-2.06,1.55-2.06c0.88,0,1.55,0.64,1.55,1.48v9.18h3.63
	c3.73,0,6.73,2.87,6.73,6.43v13.48c0,0.84-0.67,1.48-1.55,1.48c-0.83,0-1.55-0.64-1.55-1.48V39.88c0-1.93-1.61-3.46-3.63-3.46h-3.63
	v16.94c0,0.84-0.67,1.48-1.55,1.48C182.48,54.85,181.76,54.2,181.76,53.94"/>
<path class="st0" d="M196.31,63.83c0-0.84,0.67-1.48,1.55-1.48c1.61,0,3.01-0.99,3.47-2.47l1.86-5.93l-6.06-19.34
	c-0.26-0.79,0.21-1.63,1.04-1.88c0.83-0.2,1.66,0.25,1.92,0.99l4.72,15.09l4.77-15.09c0.21-0.74,1.09-1.19,1.92-0.99
	c0.83,0.25,1.29,1.09,1.04,1.88l-6.22,19.78l-1.97,6.33c-0.47,1.33-1.3,2.52-2.43,3.31c-1.19,0.84-2.59,1.29-4.04,1.29
	C196.98,65.32,196.31,64.68,196.31,63.83"/>
<path class="st0" d="M222.72,49.1c-0.05-0.99-0.57-1.83-1.4-2.37l-4.82-3.26c-1.55-1.04-2.49-2.67-2.64-4.45
	c-0.1-1.83,0.62-3.56,2.02-4.75c1.4-1.24,3.26-1.78,5.13-1.53c1.86,0.3,3.52,1.34,4.46,2.92c0.41,0.69,0.16,1.63-0.57,2.03
	c-0.72,0.4-1.71,0.15-2.12-0.54c-0.47-0.79-1.3-1.29-2.23-1.43c-0.93-0.15-1.86,0.1-2.59,0.74c-0.67,0.59-1.04,1.48-0.98,2.37
	c0.05,0.89,0.57,1.73,1.35,2.23l4.82,3.21c1.61,1.09,2.59,2.77,2.7,4.65c0.15,1.88-0.62,3.66-2.07,4.89
	c-1.45,1.29-3.37,1.83-5.28,1.58c-1.97-0.3-3.63-1.38-4.61-3.01c-0.42-0.69-0.16-1.63,0.57-2.03c0.72-0.4,1.71-0.15,2.12,0.54
	c0.52,0.84,1.35,1.38,2.38,1.53c0.98,0.15,1.97-0.15,2.74-0.79C222.41,50.98,222.82,50.04,222.72,49.1"/>
<line class="st1" x1="51.56" y1="10.42" x2="59.94" y2="60.12"/>
<line class="st1" x1="31.03" y1="21.39" x2="59.94" y2="60.12"/>
<line class="st2" x1="11.88" y1="40.93" x2="31.03" y2="21.39"/>
<line class="st3" x1="11.88" y1="40.93" x2="59.94" y2="60.12"/>
<line class="st1" x1="59.94" y1="60.12" x2="65.17" y2="45.32"/>
<line class="st4" x1="31.03" y1="21.39" x2="65.17" y2="45.32"/>
<line class="st3" x1="11.88" y1="40.93" x2="65.17" y2="45.32"/>
<line class="st5" x1="51.56" y1="10.42" x2="65.17" y2="45.32"/>
<path class="st6" d="M43.84,29.41"/>
<path class="st7" d="M45.16,30.56"/>
<path class="st6" d="M31.41,31.12"/>
<path class="st6" d="M31.41,31.12"/>
</svg>
