<?xml version="1.0" encoding="utf-8"?>
<!-- Generator: Adobe Illustrator 24.2.3, SVG Export Plug-In . SVG Version: 6.00 Build 0)  -->
<svg version="1.1" id="Layer_1" xmlns="http://www.w3.org/2000/svg" xmlns:xlink="http://www.w3.org/1999/xlink" x="0px" y="0px"
	 viewBox="0 0 38.1 22.6" style="enable-background:new 0 0 38.1 22.6;" xml:space="preserve">
<style type="text/css">
	.st0{fill:none;stroke:#9322FF;stroke-width:1.8;stroke-linecap:round;stroke-linejoin:round;stroke-miterlimit:10;}
	.st1{fill:none;stroke:#00ADE2;stroke-width:1.8;stroke-linecap:round;stroke-linejoin:round;stroke-miterlimit:10;}
	.st2{fill:none;stroke:#FF9B24;stroke-width:1.8;stroke-linecap:round;stroke-linejoin:round;stroke-miterlimit:10;}
	.st3{fill:none;stroke:#F95E19;stroke-width:1.8;stroke-linecap:round;stroke-linejoin:round;stroke-miterlimit:10;}
	.st4{fill:none;stroke:#517C60;stroke-width:1.8;stroke-linecap:round;stroke-linejoin:round;stroke-miterlimit:10;}
	.st5{fill:none;stroke:#6DBA00;stroke-width:1.8;stroke-linecap:round;stroke-linejoin:round;stroke-miterlimit:10;}
	.st6{fill:none;stroke:#008CE2;stroke-width:1.8;stroke-linecap:round;stroke-linejoin:round;stroke-miterlimit:10;}
	.st7{fill:none;stroke:#10639B;stroke-width:1.8;stroke-linecap:round;stroke-linejoin:round;stroke-miterlimit:10;}
	.st8{fill:none;stroke:#BA78F9;stroke-width:1.8;stroke-linecap:round;stroke-linejoin:round;stroke-miterlimit:10;}
	.st9{fill:none;stroke:#6F1472;stroke-width:1.8;stroke-linecap:round;stroke-linejoin:round;stroke-miterlimit:10;}
	.st10{enable-background:new    ;}
	.st11{fill:#262626;}
</style>
<g id="Layer_1_1_">
</g>
<g id="Layer_2_1_">
	<path class="st0" d="M10.9,8.7c0,2.4-2,4.4-4.4,4.4"/>
	<line class="st1" x1="20.7" y1="13.3" x2="20.7" y2="6.7"/>
	<line class="st2" x1="35" y1="13.3" x2="27.3" y2="1.3"/>
	<line class="st3" x1="34.3" y1="2.6" x2="27.3" y2="10.9"/>
	<line class="st4" x1="24" y1="13.3" x2="24" y2="8.7"/>
	<line class="st5" x1="24" y1="1.5" x2="24" y2="1.3"/>
	<g>
		<line class="st6" x1="13.9" y1="8.7" x2="13.9" y2="3.8"/>
		<g>
			<path class="st6" d="M13.9,6.7c0-1.6,1.5-2.9,3.4-2.9s3.4,1.3,3.4,2.9"/>
		</g>
	</g>
	<polyline class="st7" points="13.9,13.3 13.9,12.7 13.9,8.7 	"/>
	<line class="st5" x1="24" y1="8.7" x2="24" y2="4.6"/>
	<path class="st8" d="M6.5,4.3c2.4,0,4.4,2,4.4,4.4"/>
	<path class="st0" d="M2.1,8.7c0-2.4,2-4.4,4.4-4.4"/>
	<path class="st9" d="M6.5,13.1c-2.4,0-4.4-2-4.4-4.4"/>
	<g class="st10">
		<path class="st11" d="M3.1,20.2c-0.2,0-0.4,0-0.5-0.1s-0.3-0.2-0.4-0.3c-0.1-0.1-0.2-0.3-0.3-0.4c-0.1-0.2-0.1-0.3-0.1-0.5v-2.1
			c0-0.2,0-0.4,0.1-0.5C1.9,16.1,2,16,2.1,15.8c0.1-0.1,0.3-0.2,0.4-0.3s0.3-0.1,0.5-0.1s0.4,0,0.5,0.1c0.2,0.1,0.3,0.2,0.4,0.3
			c0.1,0.1,0.2,0.3,0.3,0.4c0.1,0.2,0.1,0.3,0.1,0.5v2.1c0,0.2,0,0.4-0.1,0.5c-0.1,0.2-0.2,0.3-0.3,0.4c-0.1,0.1-0.3,0.2-0.4,0.3
			C3.5,20.1,3.3,20.2,3.1,20.2z M3.1,16.1c-0.2,0-0.4,0.1-0.5,0.2s-0.2,0.3-0.2,0.5v2.1c0,0.2,0.1,0.4,0.2,0.5s0.3,0.2,0.5,0.2
			s0.4-0.1,0.5-0.2c0.1-0.1,0.2-0.3,0.2-0.5v-2.1c0-0.2-0.1-0.4-0.2-0.5C3.5,16.1,3.3,16.1,3.1,16.1z"/>
		<path class="st11" d="M6.1,22.2c-0.1,0-0.2,0-0.2-0.1c-0.1-0.1-0.1-0.1-0.1-0.2v-6.1c0-0.1,0-0.2,0.1-0.2c0.1-0.1,0.1-0.1,0.2-0.1
			h1c0.2,0,0.4,0,0.5,0.1s0.3,0.2,0.4,0.3c0.1,0.1,0.2,0.3,0.3,0.4c0.1,0.2,0.1,0.3,0.1,0.5v2c0,0.2,0,0.4-0.1,0.5
			c-0.1,0.2-0.2,0.3-0.3,0.4C7.9,19.9,7.8,20,7.6,20s-0.3,0.1-0.5,0.1H6.4v1.8c0,0.1,0,0.2-0.1,0.2C6.2,22.2,6.1,22.2,6.1,22.2z
			 M7.8,16.8c0-0.2-0.1-0.4-0.2-0.5s-0.3-0.2-0.5-0.2H6.4v3.4h0.7c0.2,0,0.4-0.1,0.5-0.2c0.1-0.1,0.2-0.3,0.2-0.5V16.8z"/>
		<path class="st11" d="M10.4,20.1c-0.3-0.1-0.5-0.3-0.6-0.5s-0.2-0.5-0.2-0.7v-2.1c0-0.2,0-0.4,0.1-0.5c0.1-0.2,0.2-0.3,0.3-0.4
			c0.1-0.1,0.3-0.2,0.4-0.3s0.3-0.1,0.5-0.1s0.4,0,0.5,0.1c0.2,0.1,0.3,0.2,0.4,0.3c0.1,0.1,0.2,0.3,0.3,0.4s0.1,0.3,0.1,0.5v1
			c0,0.1,0,0.2-0.1,0.2c-0.1,0.1-0.1,0.1-0.2,0.1h-1.7v0.7c0,0.1,0,0.3,0.1,0.4c0.1,0.1,0.2,0.2,0.3,0.3s0.3,0.1,0.4,0
			c0.1,0,0.3-0.1,0.4-0.2c0.1-0.1,0.1-0.1,0.2-0.1c0.1,0,0.2,0,0.2,0.1c0.1,0.1,0.1,0.1,0.1,0.2c0,0.1,0,0.2-0.1,0.2
			c-0.2,0.2-0.4,0.3-0.7,0.4C10.9,20.2,10.7,20.2,10.4,20.1z M10.9,16.1c-0.2,0-0.4,0.1-0.5,0.2s-0.2,0.3-0.2,0.5v0.7h1.4v-0.7
			c0-0.2-0.1-0.4-0.2-0.5C11.3,16.1,11.1,16.1,10.9,16.1z"/>
		<path class="st11" d="M13.8,20.2c-0.1,0-0.2,0-0.2-0.1c-0.1-0.1-0.1-0.1-0.1-0.2v-4.1c0-0.1,0-0.2,0.1-0.2
			c0.1-0.1,0.1-0.1,0.2-0.1h1c0.2,0,0.4,0,0.5,0.1s0.3,0.2,0.4,0.3c0.1,0.1,0.2,0.3,0.3,0.4c0.1,0.2,0.1,0.3,0.1,0.5v3
			c0,0.1,0,0.2-0.1,0.2c-0.1,0.1-0.1,0.1-0.2,0.1c-0.1,0-0.2,0-0.2-0.1c-0.1-0.1-0.1-0.1-0.1-0.2v-3c0-0.2-0.1-0.4-0.2-0.5
			s-0.3-0.2-0.5-0.2h-0.7v3.8c0,0.1,0,0.2-0.1,0.2C14,20.1,13.9,20.2,13.8,20.2z"/>
	</g>
	<g class="st10">
	</g>
	<g class="st10">
		<path class="st11" d="M19.5,20.1c-0.3-0.1-0.5-0.3-0.6-0.5s-0.2-0.5-0.2-0.7v-2.1c0-0.2,0-0.4,0.1-0.5c0.1-0.2,0.2-0.3,0.3-0.4
			c0.1-0.1,0.3-0.2,0.4-0.3s0.3-0.1,0.5-0.1c0.2,0,0.4,0,0.5,0.1s0.3,0.2,0.4,0.3c0.1,0.1,0.2,0.3,0.3,0.4c0.1,0.2,0.1,0.3,0.1,0.5
			v1c0,0.1,0,0.2-0.1,0.2c-0.1,0.1-0.1,0.1-0.2,0.1h-1.7v0.7c0,0.1,0,0.3,0.1,0.4c0.1,0.1,0.2,0.2,0.3,0.3s0.3,0.1,0.4,0
			c0.1,0,0.3-0.1,0.4-0.2c0.1-0.1,0.1-0.1,0.2-0.1c0.1,0,0.2,0,0.2,0.1c0.1,0.1,0.1,0.1,0.1,0.2c0,0.1,0,0.2-0.1,0.2
			c-0.2,0.2-0.4,0.3-0.7,0.4C20.1,20.2,19.8,20.2,19.5,20.1z M20.1,16.1c-0.2,0-0.4,0.1-0.5,0.2s-0.2,0.3-0.2,0.5v0.7h1.4v-0.7
			c0-0.2-0.1-0.4-0.2-0.5S20.3,16.1,20.1,16.1z"/>
		<path class="st11" d="M22.9,22.2c-0.1,0-0.2,0-0.2-0.1c-0.1-0.1-0.1-0.1-0.1-0.2v-6.1c0-0.1,0-0.2,0.1-0.2
			c0.1-0.1,0.1-0.1,0.2-0.1h1c0.2,0,0.4,0,0.5,0.1s0.3,0.2,0.4,0.3c0.1,0.1,0.2,0.3,0.3,0.4c0.1,0.2,0.1,0.3,0.1,0.5v2
			c0,0.2,0,0.4-0.1,0.5c-0.1,0.2-0.2,0.3-0.3,0.4S24.6,20,24.5,20s-0.3,0.1-0.5,0.1h-0.7v1.8c0,0.1,0,0.2-0.1,0.2S23,22.2,22.9,22.2
			z M24.7,16.8c0-0.2-0.1-0.4-0.2-0.5c-0.1-0.1-0.3-0.2-0.5-0.2h-0.7v3.4H24c0.2,0,0.4-0.1,0.5-0.2c0.1-0.1,0.2-0.3,0.2-0.5V16.8z"
			/>
		<path class="st11" d="M26.9,20.2c-0.1,0-0.2,0-0.2-0.1c-0.1-0.1-0.1-0.1-0.1-0.2v-6.2c0-0.1,0-0.2,0.1-0.2
			c0.1-0.1,0.1-0.1,0.2-0.1c0.1,0,0.2,0,0.2,0.1c0.1,0.1,0.1,0.1,0.1,0.2v1.8H28c0.2,0,0.4,0,0.5,0.1s0.3,0.2,0.4,0.3
			c0.1,0.1,0.2,0.3,0.3,0.4c0.1,0.2,0.1,0.3,0.1,0.5v3c0,0.1,0,0.2-0.1,0.2c-0.1,0.1-0.1,0.1-0.2,0.1c-0.1,0-0.2,0-0.2-0.1
			c-0.1-0.1-0.1-0.1-0.1-0.2v-3c0-0.2-0.1-0.4-0.2-0.5c-0.1-0.1-0.3-0.2-0.5-0.2h-0.7v3.8c0,0.1,0,0.2-0.1,0.2
			C27.1,20.1,27,20.2,26.9,20.2z"/>
		<path class="st11" d="M30.4,22.2c-0.1,0-0.2,0-0.2-0.1s-0.1-0.1-0.1-0.2c0-0.1,0-0.2,0.1-0.2c0.1-0.1,0.1-0.1,0.2-0.1
			c0.2,0,0.3,0,0.4-0.1s0.2-0.2,0.3-0.4l0.4-1.2l-1.2-4c0-0.1,0-0.2,0-0.2s0.1-0.1,0.2-0.2c0.1,0,0.2,0,0.2,0c0.1,0,0.1,0.1,0.1,0.2
			l0.9,3.1l0.9-3.1c0-0.1,0.1-0.1,0.1-0.2c0.1,0,0.2-0.1,0.2,0c0.1,0,0.1,0.1,0.2,0.2s0,0.2,0,0.2L32.1,20l-0.4,1.3
			c-0.1,0.3-0.3,0.5-0.5,0.7C31,22.1,30.7,22.2,30.4,22.2z"/>
		<path class="st11" d="M35.8,19.4c0.2-0.1,0.2-0.3,0.2-0.5c0-0.2-0.1-0.4-0.3-0.5l-1-0.7c-0.2-0.1-0.3-0.2-0.4-0.4
			c-0.1-0.2-0.1-0.3-0.2-0.5c0-0.2,0-0.4,0.1-0.5c0.1-0.2,0.2-0.3,0.3-0.4c0.1-0.1,0.3-0.2,0.5-0.3c0.2-0.1,0.4-0.1,0.5,0
			c0.2,0,0.4,0.1,0.5,0.2c0.2,0.1,0.3,0.2,0.4,0.4c0,0.1,0.1,0.2,0,0.2s-0.1,0.1-0.1,0.2c-0.1,0-0.2,0.1-0.2,0s-0.1-0.1-0.2-0.1
			c-0.1-0.2-0.2-0.3-0.4-0.3c-0.2,0-0.4,0-0.5,0.2c-0.1,0.1-0.2,0.3-0.2,0.5c0,0.2,0.1,0.4,0.3,0.5l1,0.7c0.2,0.1,0.3,0.3,0.4,0.4
			c0.1,0.2,0.1,0.3,0.2,0.5c0,0.2,0,0.4-0.1,0.6c-0.1,0.2-0.2,0.3-0.3,0.5c-0.1,0.1-0.3,0.2-0.5,0.3c-0.2,0.1-0.4,0.1-0.6,0
			c-0.2,0-0.4-0.1-0.5-0.2c-0.2-0.1-0.3-0.2-0.4-0.4c0-0.1-0.1-0.2,0-0.2s0.1-0.1,0.1-0.2c0.1,0,0.2-0.1,0.2,0s0.1,0.1,0.2,0.1
			c0.1,0.2,0.3,0.3,0.5,0.3C35.4,19.6,35.6,19.5,35.8,19.4z"/>
	</g>
</g>
</svg>
