<?xml version="1.0" encoding="UTF-8" standalone="no"?>
<!-- Generator: Adobe Illustrator 24.2.3, SVG Export Plug-In . SVG Version: 6.00 Build 0)  -->

<svg
   version="1.1"
   id="Layer_1"
   x="0px"
   y="0px"
   viewBox="0 0 79.160004 22.600001"
   xml:space="preserve"
   sodipodi:docname="onix_open_ephys_logo_hardware.svg"
   width="79.160004"
   height="22.6"
   inkscape:version="1.3.2 (091e20e, 2023-11-25, custom)"
   xmlns:inkscape="http://www.inkscape.org/namespaces/inkscape"
   xmlns:sodipodi="http://sodipodi.sourceforge.net/DTD/sodipodi-0.dtd"
   xmlns="http://www.w3.org/2000/svg"
   xmlns:svg="http://www.w3.org/2000/svg"><defs
   id="defs27"><clipPath
     clipPathUnits="userSpaceOnUse"
     id="clipPath103"><path
       d="M 0,75.1 H 221.306 V 0 H 0 Z"
       transform="translate(-37.500001,-71.400002)"
       id="path103" /></clipPath><clipPath
     clipPathUnits="userSpaceOnUse"
     id="clipPath103-9"><path
       d="M 0,75.1 H 221.306 V 0 H 0 Z"
       transform="translate(-37.500001,-71.400002)"
       id="path103-5" /></clipPath></defs><sodipodi:namedview
   id="namedview27"
   pagecolor="#ffffff"
   bordercolor="#000000"
   borderopacity="0.25"
   inkscape:showpageshadow="2"
   inkscape:pageopacity="0.0"
   inkscape:pagecheckerboard="0"
   inkscape:deskcolor="#d1d1d1"
   inkscape:export-bgcolor="#ffffff00"
   inkscape:zoom="10.569484"
   inkscape:cx="31.458489"
   inkscape:cy="4.7305999"
   inkscape:window-width="1920"
   inkscape:window-height="1052"
   inkscape:window-x="-8"
   inkscape:window-y="-8"
   inkscape:window-maximized="1"
   inkscape:current-layer="Layer_2_1_" />
<g
   id="Layer_1_1_">
</g>
<g
   id="Layer_2_1_">
	<rect
   style="display:none;fill:#000000;stroke:none;stroke-width:3.78709;stroke-linecap:square;stroke-opacity:0.937255;paint-order:fill markers stroke"
   id="rect28"
   width="79.474083"
   height="22.990717"
   x="-0.189224"
   y="-0.28383601" /><g
   id="g1">
		<path
   style="fill:#9322ff"
   d="M 6.5,14 C 6.3757324,14 6.2573547,13.97479 6.1496887,13.92921 6.0420227,13.88363 5.9450683,13.817683 5.8636474,13.736201 5.7822264,13.654721 5.7163391,13.557704 5.6708068,13.449992 c -0.045532,-0.107712 -0.070709,-0.22612 -0.070709,-0.350388 0,-0.124267 0.025177,-0.242675 0.070709,-0.350387 0.045532,-0.107712 0.1114197,-0.204727 0.1928406,-0.286209 0.081421,-0.08148 0.1783752,-0.147431 0.2860413,-0.193009 0.1076661,-0.04558 0.2260437,-0.07079 0.3503113,-0.07079 0.4742432,0 0.9301147,-0.100128 1.3471603,-0.279961 0.4170456,-0.179832 0.7952652,-0.439369 1.1142044,-0.758186 0.3189392,-0.318817 0.578598,-0.696915 0.758522,-1.113869 C 9.8998107,9.6302492 10,9.1744385 10,8.7001953 10,8.5759277 10.025177,8.45755 10.070709,8.349884 c 0.04553,-0.107666 0.11142,-0.2046204 0.192841,-0.2860413 0.08142,-0.081421 0.178375,-0.1473083 0.286041,-0.1928406 0.107666,-0.045532 0.226044,-0.070709 0.350311,-0.070709 0.124268,0 0.242646,0.025177 0.350312,0.070709 0.107666,0.045532 0.20462,0.1114197 0.286041,0.1928406 0.08142,0.081421 0.147308,0.1783752 0.192841,0.2860413 0.04553,0.1076661 0.07071,0.2260437 0.07071,0.3503113 0,0.7181396 -0.151673,1.4084477 -0.424072,2.0399547 -0.2724,0.631508 -0.665528,1.204216 -1.148438,1.687157 C 9.7443848,12.910248 9.171692,13.303421 8.5401612,13.575859 7.9086304,13.848297 7.2182617,14 6.5,14 Z"
   id="path1" />
	</g>
	<g
   id="g2">
		<path
   style="fill:#00ade2"
   d="m 20.700195,14.200195 c -0.124267,0 -0.242645,-0.02521 -0.350311,-0.07079 -0.107666,-0.04558 -0.20462,-0.111527 -0.286041,-0.193009 -0.08142,-0.08148 -0.147309,-0.178497 -0.192841,-0.286209 -0.04553,-0.107711 -0.07071,-0.22612 -0.07071,-0.350387 V 11.649902 10 8.3500977 6.7001953 c 0,-0.1242676 0.02518,-0.2426453 0.07071,-0.3503113 0.04553,-0.107666 0.11142,-0.2046204 0.192841,-0.2860413 0.08142,-0.081421 0.178375,-0.1473083 0.286041,-0.1928406 0.107666,-0.045532 0.226044,-0.070709 0.350311,-0.070709 0.124268,0 0.242676,0.025177 0.350388,0.070709 0.107712,0.045532 0.204727,0.1114197 0.286209,0.1928406 0.08148,0.081421 0.14743,0.1783752 0.193008,0.2860413 0.04558,0.1076661 0.07079,0.2260437 0.07079,0.3503113 V 8.3500976 10 v 1.649902 1.649903 c 0,0.124267 -0.02521,0.242675 -0.07079,0.350387 -0.04558,0.107712 -0.111526,0.204727 -0.193008,0.286209 -0.08148,0.08148 -0.178497,0.147431 -0.286209,0.193009 -0.107712,0.04558 -0.22612,0.07079 -0.350388,0.07079 z"
   id="path2" />
	</g>
	<g
   id="g3">
		<path
   style="fill:#ff9b24"
   d="m 35.000977,14.200195 c -0.07422,0 -0.148011,-0.0092 -0.219635,-0.02707 -0.07163,-0.01791 -0.141083,-0.04459 -0.206635,-0.07962 -0.06555,-0.03503 -0.127197,-0.07843 -0.183197,-0.129791 -0.056,-0.05136 -0.106354,-0.110688 -0.149322,-0.177582 L 32.317139,10.786011 30.39209,7.7858885 28.467041,4.7857666 26.541992,1.7856445 c -0.06714,-0.1044922 -0.109863,-0.2176819 -0.129654,-0.3328781 -0.01979,-0.1151962 -0.01665,-0.232399 0.008,-0.3449173 0.0246,-0.1125183 0.07065,-0.2203522 0.136673,-0.3168106 0.06602,-0.0964584 0.152023,-0.1815414 0.256516,-0.248558 0.10498,-0.0675049 0.218444,-0.1103821 0.333786,-0.1302032 0.115341,-0.0198211 0.232559,-0.0165863 0.345047,0.008133 0.112487,0.0247192 0.220245,0.0709229 0.316665,0.1370392 0.09642,0.0661163 0.181503,0.1521454 0.248642,0.2565155 l 1.925049,2.9998779 1.925049,2.9998779 1.925049,2.9998779 1.925048,2.9998773 c 0.06714,0.104737 0.109864,0.218079 0.129654,0.333374 0.01979,0.115296 0.01665,0.232544 -0.008,0.345093 -0.0246,0.112549 -0.07065,0.220398 -0.136673,0.316895 -0.06602,0.0965 -0.152023,0.18164 -0.256515,0.248779 -0.0376,0.02393 -0.07635,0.0448 -0.115936,0.06265 -0.03958,0.01785 -0.07999,0.03268 -0.12088,0.04453 -0.04089,0.01184 -0.08228,0.02069 -0.12381,0.02658 -0.04153,0.0059 -0.08322,0.0088 -0.124725,0.0088 z"
   id="path3" />
	</g>
	<g
   id="g4">
		<path
   style="fill:#f95e19"
   d="m 27.299805,11.799805 c -0.05127,0 -0.1026,-0.0043 -0.153397,-0.01306 -0.0508,-0.0087 -0.101059,-0.02185 -0.150192,-0.03943 -0.04913,-0.01758 -0.09714,-0.03961 -0.143418,-0.06616 -0.04628,-0.02655 -0.09083,-0.05762 -0.133072,-0.09326 -0.09497,-0.08008 -0.16925,-0.175629 -0.222229,-0.279846 -0.05298,-0.104218 -0.08465,-0.217103 -0.09442,-0.331849 -0.0098,-0.114746 0.0024,-0.231353 0.03705,-0.343017 0.03467,-0.111664 0.09186,-0.218384 0.172181,-0.313355 l 1.75,-2.0749509 1.75,-2.0749512 1.75,-2.0749512 1.75,-2.0749512 c 0.08008,-0.095337 0.175598,-0.1697693 0.279769,-0.2227859 0.104172,-0.053017 0.216996,-0.084618 0.331681,-0.094292 0.114685,-0.00967 0.231231,0.00258 0.342849,0.03727 0.111618,0.034691 0.218308,0.09182 0.313279,0.1718979 0.09497,0.080078 0.16925,0.1756287 0.222229,0.2798462 0.05298,0.1042175 0.08466,0.2171021 0.09442,0.3318481 0.0098,0.114746 -0.0024,0.2313538 -0.03705,0.3430176 -0.03467,0.1116638 -0.09186,0.2183838 -0.17218,0.3133545 l -1.75,2.0749512 -1.75,2.0749512 -1.75,2.0749512 -1.75,2.0749515 c -0.04443,0.05286 -0.09363,0.09927 -0.146424,0.139167 -0.05279,0.0399 -0.109192,0.07327 -0.16803,0.100029 -0.05884,0.02676 -0.120117,0.04692 -0.182678,0.06039 -0.06256,0.01347 -0.126404,0.02024 -0.190368,0.02024 z"
   id="path4" />
	</g>
	<g
   id="g5">
		<path
   style="fill:#517c60"
   d="m 24,14.200195 c -0.124268,0 -0.242676,-0.02521 -0.350388,-0.07079 -0.107711,-0.04558 -0.204727,-0.111527 -0.286209,-0.193009 -0.08148,-0.08148 -0.14743,-0.178497 -0.193008,-0.286209 -0.04558,-0.107711 -0.07079,-0.22612 -0.07079,-0.350387 V 12.149902 11 9.8500977 8.7001953 c 0,-0.1242676 0.02521,-0.2426453 0.07079,-0.3503113 0.04558,-0.107666 0.111526,-0.2046204 0.193008,-0.2860413 0.08148,-0.081421 0.178498,-0.1473083 0.286209,-0.1928406 C 23.757324,7.8254698 23.875732,7.800293 24,7.800293 c 0.124268,0 0.242676,0.025177 0.350388,0.070709 0.107711,0.045532 0.204727,0.1114197 0.286209,0.1928406 0.08148,0.081421 0.14743,0.1783752 0.193008,0.2860413 0.04558,0.1076661 0.07079,0.2260437 0.07079,0.3503113 V 9.8500977 11 v 1.149902 1.149903 c 0,0.124267 -0.02521,0.242675 -0.07079,0.350387 -0.04558,0.107712 -0.111526,0.204727 -0.193008,0.286209 -0.08148,0.08148 -0.178498,0.147431 -0.286209,0.193009 C 24.242676,14.17499 24.124268,14.2002 24,14.2002 Z"
   id="path5" />
	</g>
	<g
   id="g6">
		<path
   style="fill:#6dba00"
   d="m 24,2.3999023 c -0.124268,0 -0.242676,-0.025177 -0.350388,-0.070709 C 23.541901,2.2836609 23.444885,2.2177734 23.363403,2.1363525 23.281921,2.0549316 23.215973,1.9579773 23.170395,1.8503112 23.124817,1.7426451 23.099609,1.6242676 23.099609,1.5 V 1.449951 1.399902 1.349853 1.299804 c 0,-0.1242676 0.02521,-0.2426453 0.07079,-0.3503113 0.04558,-0.107666 0.111526,-0.2046204 0.193008,-0.2860413 0.08148,-0.0814209 0.178498,-0.1473083 0.286209,-0.1928406 C 23.757324,0.4250792 23.875732,0.3999023 24,0.3999023 c 0.124268,0 0.242676,0.025177 0.350388,0.0707092 0.107711,0.0455322 0.204727,0.1114197 0.286209,0.1928406 0.08148,0.0814209 0.14743,0.1783752 0.193008,0.2860413 0.04558,0.1076661 0.07079,0.2260437 0.07079,0.3503113 v 0.050049 0.050049 0.050049 V 1.5 c 0,0.1242676 -0.02521,0.2426453 -0.07079,0.3503113 -0.04558,0.107666 -0.111526,0.2046204 -0.193008,0.2860413 -0.08148,0.081421 -0.178498,0.1473083 -0.286209,0.1928406 C 24.242676,2.3747255 24.124268,2.3999023 24,2.3999023 Z"
   id="path6" />
	</g>
	<g
   id="g10">
		<g
   id="g7">
			<path
   style="fill:#008ce2"
   d="m 13.899902,9.6000977 c -0.124267,0 -0.242645,-0.025177 -0.350311,-0.070709 C 13.441925,9.4838563 13.344971,9.4179688 13.26355,9.3365479 13.182129,9.255127 13.116241,9.1581727 13.070709,9.0505066 13.025177,8.9428405 13,8.8244629 13,8.7001953 V 7.4750977 6.25 5.0249023 3.7998047 c 0,-0.1242676 0.02518,-0.2426453 0.07071,-0.3503113 0.04553,-0.107666 0.11142,-0.2046204 0.192841,-0.2860413 0.08142,-0.081421 0.178375,-0.1473083 0.286041,-0.1928406 0.107666,-0.045532 0.226044,-0.070709 0.350311,-0.070709 0.124268,0 0.242646,0.025177 0.350312,0.070709 0.107666,0.045532 0.20462,0.1114197 0.286041,0.1928406 0.08142,0.081421 0.147308,0.1783752 0.192841,0.2860413 0.04553,0.1076661 0.07071,0.2260437 0.07071,0.3503113 V 5.0249024 6.25 7.4750977 8.7001954 c 0,0.1242676 -0.02518,0.2426453 -0.07071,0.3503113 -0.04553,0.107666 -0.11142,0.2046204 -0.192841,0.2860413 -0.08142,0.081421 -0.178375,0.1473083 -0.286041,0.1928406 -0.107666,0.045532 -0.226044,0.070709 -0.350312,0.070709 z"
   id="path7" />
		</g>
		<g
   id="g9">
			<g
   id="g8">
				<path
   style="fill:#008ce2"
   d="m 20.700195,7.6000977 c -0.124267,0 -0.242645,-0.025177 -0.350311,-0.070709 -0.107666,-0.045532 -0.20462,-0.1114197 -0.286041,-0.1928406 -0.08142,-0.081421 -0.147309,-0.1783752 -0.192841,-0.2860413 -0.04553,-0.1076661 -0.07071,-0.2260437 -0.07071,-0.3503113 0,-0.2757568 -0.0701,-0.5386658 -0.196793,-0.777916 C 19.476807,5.6830291 19.293518,5.4674377 19.067139,5.2863159 18.840759,5.1051941 18.571289,4.9585419 18.272232,4.8571701 17.973175,4.7557983 17.644531,4.699707 17.299805,4.699707 c -0.344605,0 -0.673157,0.056091 -0.972145,0.1574631 -0.298989,0.1013718 -0.568413,0.248024 -0.794762,0.4291458 -0.226349,0.1811218 -0.409622,0.3967133 -0.536308,0.6359634 -0.126686,0.2392501 -0.196785,0.5021591 -0.196785,0.777916 0,0.1242676 -0.02518,0.2426453 -0.07071,0.3503113 -0.04553,0.107666 -0.111419,0.2046204 -0.19284,0.2860413 -0.08142,0.081421 -0.178375,0.1473083 -0.286042,0.1928406 -0.107666,0.045532 -0.226043,0.070709 -0.350311,0.070709 -0.124267,0 -0.242645,-0.025177 -0.350311,-0.070709 C 13.441925,7.4838563 13.344971,7.4179688 13.26355,7.3365479 13.182129,7.255127 13.116241,7.1581727 13.070709,7.0505066 13.025177,6.9428405 13,6.8244629 13,6.7001953 13,6.1762695 13.120544,5.6767883 13.338409,5.2222748 13.556274,4.7677613 13.87146,4.3582154 14.260742,4.0141602 14.650024,3.670105 15.113403,3.3915406 15.627655,3.1989899 c 0.514252,-0.1925507 1.079376,-0.2990875 1.67215,-0.2990875 0.592773,0 1.157959,0.1065369 1.672302,0.2990875 0.514343,0.1925506 0.977844,0.4711151 1.367248,0.8151703 0.389405,0.3440552 0.704712,0.7536011 0.922669,1.2081146 0.217956,0.4545135 0.338562,0.9539948 0.338562,1.4779205 0,0.1242676 -0.02521,0.2426453 -0.07079,0.3503113 -0.04558,0.107666 -0.111526,0.2046204 -0.193008,0.2860413 -0.08148,0.081421 -0.178497,0.1473083 -0.286209,0.1928406 -0.107712,0.045532 -0.22612,0.070709 -0.350388,0.070709 z"
   id="path8" />
			</g>
		</g>
	</g>
	<g
   id="g11">
		<path
   style="fill:#10639b"
   d="m 13.899902,14.200195 c -0.124267,0 -0.242645,-0.02521 -0.350311,-0.07079 -0.107666,-0.04558 -0.20462,-0.111527 -0.286041,-0.193009 -0.08142,-0.08148 -0.147309,-0.178497 -0.192841,-0.286209 C 13.025177,13.542481 13,13.424072 13,13.299805 V 12.149902 11 9.8500977 8.7001953 C 13,8.5759277 13.02518,8.45755 13.07071,8.349884 c 0.04553,-0.107666 0.11142,-0.2046204 0.192841,-0.2860413 0.08142,-0.081421 0.178375,-0.1473083 0.286041,-0.1928406 0.107666,-0.045532 0.226044,-0.070709 0.350311,-0.070709 0.124268,0 0.242646,0.025177 0.350312,0.070709 0.107666,0.045532 0.20462,0.1114197 0.286041,0.1928406 0.08142,0.081421 0.147308,0.1783752 0.192841,0.2860413 0.04553,0.1076661 0.07071,0.2260437 0.07071,0.3503113 V 9.8500976 11 v 1.149902 1.149903 c 0,0.124267 -0.02518,0.242675 -0.07071,0.350387 -0.04553,0.107712 -0.11142,0.204727 -0.192841,0.286209 -0.08142,0.08148 -0.178375,0.147431 -0.286041,0.193009 -0.107666,0.04558 -0.226044,0.07079 -0.350312,0.07079 z"
   id="path10" />
	</g>
	<g
   id="g12">
		<path
   style="fill:#6dba00"
   d="m 24,9.6000977 c -0.124268,0 -0.242676,-0.025177 -0.350388,-0.070709 C 23.541901,9.4838563 23.444885,9.4179688 23.363403,9.3365479 23.281921,9.255127 23.215973,9.1581727 23.170395,9.0505066 23.124817,8.9428405 23.099609,8.8244629 23.099609,8.7001953 V 7.6751709 6.6501465 5.6251221 4.6000977 c 0,-0.1242676 0.02521,-0.2426453 0.07079,-0.3503113 0.04558,-0.107666 0.111526,-0.2046204 0.193008,-0.2860413 0.08148,-0.081421 0.178498,-0.1473083 0.286209,-0.1928406 0.107712,-0.045532 0.22612,-0.070709 0.350388,-0.070709 0.124268,0 0.242676,0.025177 0.350388,0.070709 0.107711,0.045532 0.204727,0.1114197 0.286209,0.1928406 0.08148,0.081421 0.14743,0.1783752 0.193008,0.2860413 0.04558,0.1076661 0.07079,0.2260437 0.07079,0.3503113 v 1.0250244 1.0250244 1.0250244 1.0250244 c 0,0.1242676 -0.02521,0.2426453 -0.07079,0.3503113 -0.04558,0.107666 -0.111526,0.2046204 -0.193008,0.2860413 -0.08148,0.081421 -0.178498,0.1473083 -0.286209,0.1928406 C 24.242676,9.5749208 24.124268,9.6000977 24,9.6000977 Z"
   id="path11" />
	</g>
	<g
   id="g13">
		<path
   style="fill:#ba78f9"
   d="m 10.899902,9.6000977 c -0.124267,0 -0.242645,-0.025177 -0.350311,-0.070709 C 10.441925,9.4838563 10.344971,9.4179688 10.26355,9.3365479 10.182129,9.255127 10.116241,9.1581727 10.070709,9.0505066 10.025177,8.9428405 10,8.8244629 10,8.7001953 10,8.2258301 9.8998108,7.7698669 9.7198868,7.3527527 9.5399628,6.9356385 9.280304,6.557373 8.9613647,6.2384033 8.6424254,5.9194336 8.2642059,5.6597595 7.8471603,5.4798279 7.4301147,5.2998963 6.9742432,5.199707 6.5,5.199707 6.3757324,5.199707 6.2573547,5.17453 6.1496887,5.1289978 6.0420227,5.0834656 5.9450684,5.0175781 5.8636475,4.9361572 5.7822266,4.8547363 5.7163391,4.757782 5.6708069,4.650116 5.6252747,4.54245 5.6000977,4.4240723 5.6000977,4.2998047 c 0,-0.1242676 0.025177,-0.2426453 0.070709,-0.3503113 C 5.7163391,3.8418274 5.7822266,3.744873 5.8636475,3.6634521 5.9450684,3.5820312 6.0420227,3.5161438 6.1496888,3.4706115 6.2573549,3.4250792 6.3757324,3.3999023 6.5,3.3999023 c 0.7182617,0 1.4086304,0.1517029 2.0401611,0.4241486 0.6315307,0.2724457 1.2042236,0.6656342 1.6871339,1.1486053 0.48291,0.4829711 0.876038,1.0557251 1.148437,1.6873016 0.2724,0.6315765 0.424073,1.3219757 0.424073,2.0402374 0,0.1242676 -0.02518,0.2426453 -0.07071,0.3503113 -0.04553,0.107666 -0.11142,0.2046204 -0.192841,0.2860413 -0.08142,0.081421 -0.178375,0.1473083 -0.286041,0.1928406 -0.107667,0.045532 -0.226044,0.070709 -0.350312,0.070709 z"
   id="path12" />
	</g>
	<g
   id="g14">
		<path
   style="fill:#9322ff"
   d="m 2.1000977,9.6000977 c -0.1242676,0 -0.2426453,-0.025177 -0.3503113,-0.070709 C 1.6421204,9.4838563 1.545166,9.4179688 1.4637451,9.3365479 1.3823242,9.255127 1.3164368,9.1581726 1.2709045,9.0505066 1.2253722,8.9428406 1.2001953,8.8244629 1.2001953,8.7001953 c 0,-0.7182617 0.1516724,-1.4086609 0.4240723,-2.0402374 C 1.8966675,6.0283814 2.2897949,5.4556275 2.7727051,4.9726563 3.2556153,4.4896851 3.8283081,4.0964966 4.4598389,3.824051 5.0913697,3.5516054 5.7817383,3.3999023 6.5,3.3999023 c 0.1242676,0 0.2426453,0.025177 0.3503113,0.070709 0.107666,0.045532 0.2046204,0.1114197 0.2860413,0.1928406 0.081421,0.081421 0.1473083,0.1783752 0.1928406,0.2860413 0.045532,0.1076661 0.070709,0.2260437 0.070709,0.3503113 0,0.1242676 -0.025177,0.2426453 -0.070709,0.3503113 C 7.2836609,4.757782 7.2177734,4.8547363 7.1363525,4.9361572 7.0549316,5.0175781 6.9579773,5.0834656 6.8503113,5.1289978 6.7426453,5.17453 6.6242676,5.199707 6.5,5.199707 6.0257568,5.199707 5.5698853,5.2998962 5.1528397,5.4798278 4.7357941,5.6597594 4.3575745,5.9194336 4.0386353,6.2384033 3.7196961,6.557373 3.4600373,6.9356384 3.2801133,7.3527527 3.1001893,7.769867 3,8.2258301 3,8.7001953 3,8.8244629 2.974823,8.9428406 2.9292908,9.0505066 2.8837586,9.1581726 2.8178711,9.255127 2.7364502,9.3365479 2.6550293,9.4179688 2.558075,9.4838562 2.4504089,9.5293884 2.3427428,9.5749206 2.2243652,9.6000977 2.1000977,9.6000977 Z"
   id="path13" />
	</g>
	<g
   id="g15">
		<path
   style="fill:#6f1472"
   d="M 6.5,14 C 5.7817383,14 5.0913696,13.848297 4.4598389,13.575859 3.8283082,13.303421 3.2556153,12.910248 2.7727051,12.427307 2.2897949,11.944367 1.8966675,11.371658 1.6242676,10.740151 1.3518677,10.108643 1.2001953,9.418335 1.2001953,8.7001953 1.2001953,8.5759277 1.2253723,8.45755 1.2709045,8.349884 1.3164367,8.242218 1.3823242,8.1452636 1.4637451,8.0638427 1.545166,7.9824218 1.6421203,7.9165344 1.7497864,7.8710021 1.8574525,7.8254698 1.9758301,7.800293 2.1000977,7.800293 c 0.1242676,0 0.2426452,0.025177 0.3503112,0.070709 0.107666,0.045532 0.2046204,0.1114197 0.2860413,0.1928406 C 2.8178711,8.1452637 2.8837585,8.242218 2.9292908,8.349884 2.9748231,8.45755 3,8.5759277 3,8.7001953 3,9.1744385 3.1001892,9.630249 3.2801132,10.047203 c 0.179924,0.416954 0.4395828,0.795052 0.758522,1.113869 0.3189392,0.318817 0.6971588,0.578354 1.1142044,0.758186 0.4170456,0.179833 0.8729172,0.279961 1.3471604,0.279961 0.1242676,0 0.2426453,0.02521 0.3503113,0.07079 0.107666,0.04558 0.2046204,0.111527 0.2860413,0.193009 0.081421,0.08148 0.1473083,0.178497 0.1928406,0.286209 0.045532,0.107712 0.070709,0.22612 0.070709,0.350387 0,0.124268 -0.025177,0.242676 -0.070709,0.350388 -0.045532,0.107712 -0.1114197,0.204727 -0.1928406,0.286209 -0.081421,0.08148 -0.1783752,0.147431 -0.2860413,0.193009 C 6.7426452,13.974793 6.6242676,14 6.5,14 Z"
   id="path14" />
	</g>
	<g
   style="enable-background:new;fill:#ffffff"
   id="g20">
		<g
   id="g16"
   style="fill:#ffffff">
			<path
   style="fill:#ffffff"
   d="m 3.0942383,20.177734 c -0.046265,0 -0.091766,-0.0021 -0.1365128,-0.0064 -0.044746,-0.0043 -0.088738,-0.01068 -0.1319809,-0.01923 -0.043243,-0.0085 -0.085739,-0.01923 -0.1274948,-0.03204 -0.041756,-0.01282 -0.082771,-0.02777 -0.1230545,-0.04486 -0.040283,-0.01709 -0.079376,-0.03595 -0.1172867,-0.05655 -0.037911,-0.0206 -0.074638,-0.04294 -0.1101913,-0.06699 -0.035553,-0.02405 -0.069931,-0.0498 -0.1031418,-0.07724 -0.033211,-0.02744 -0.065254,-0.05655 -0.096138,-0.08731 -0.030762,-0.03076 -0.059845,-0.06274 -0.087235,-0.09593 -0.027389,-0.03319 -0.053085,-0.06758 -0.077072,-0.103164 -0.023987,-0.03558 -0.046265,-0.07236 -0.066818,-0.110306 -0.020554,-0.03795 -0.039383,-0.07707 -0.056473,-0.117356 -0.017212,-0.04028 -0.032257,-0.0813 -0.045143,-0.123062 -0.012886,-0.04176 -0.023613,-0.08427 -0.032188,-0.127548 -0.00858,-0.04327 -0.014999,-0.08731 -0.01928,-0.132126 -0.00428,-0.04481 -0.00642,-0.09041 -0.00642,-0.136795 v -0.513916 -0.513916 -0.513916 -0.513916 c 0,-0.04639 0.00214,-0.09198 0.00642,-0.136795 0.00428,-0.04481 0.010704,-0.08885 0.01928,-0.132126 0.00858,-0.04327 0.019302,-0.08579 0.032188,-0.127548 0.012886,-0.04176 0.027931,-0.08278 0.045143,-0.123062 0.01709,-0.04028 0.035919,-0.07935 0.056473,-0.117218 0.020554,-0.03787 0.042831,-0.07455 0.066818,-0.110077 0.023987,-0.03552 0.049683,-0.06988 0.077072,-0.103119 0.027389,-0.03323 0.056473,-0.06534 0.087235,-0.09634 0.030884,-0.03076 0.062927,-0.05981 0.096138,-0.08716 0.033211,-0.02734 0.067589,-0.05298 0.1031418,-0.0769 0.035553,-0.02393 0.072281,-0.04614 0.1101913,-0.06665 0.03791,-0.02051 0.077004,-0.03931 0.1172867,-0.0564 0.040283,-0.01709 0.081299,-0.0321 0.1230545,-0.04501 0.041756,-0.01291 0.084251,-0.02371 0.1274948,-0.03238 0.043243,-0.0087 0.087234,-0.0152 0.1319809,-0.01956 0.044746,-0.0044 0.090248,-0.0066 0.1365128,-0.0066 0.046265,0 0.091797,0.0022 0.1365891,0.0066 0.044792,0.0044 0.088844,0.01089 0.1321487,0.01956 0.043304,0.0087 0.085861,0.01947 0.1276627,0.03238 0.041802,0.01291 0.082848,0.02792 0.1231308,0.04501 0.040161,0.01709 0.079071,0.03589 0.1167221,0.0564 0.037651,0.02051 0.074043,0.04272 0.109169,0.06665 0.035126,0.02393 0.068985,0.04956 0.1015701,0.0769 0.032585,0.02734 0.063896,0.0564 0.093925,0.08716 0.029907,0.03101 0.05835,0.06311 0.08532,0.09634 0.02697,0.03323 0.052467,0.0676 0.076485,0.103119 0.024017,0.03552 0.046555,0.07221 0.067604,0.110077 0.02105,0.03787 0.040611,0.07694 0.058678,0.117218 0.017944,0.04028 0.033661,0.0813 0.047142,0.123062 0.013481,0.04176 0.024727,0.08427 0.03373,0.127548 0.009,0.04327 0.015762,0.08731 0.020271,0.132126 0.00451,0.04481 0.00677,0.09041 0.00677,0.136795 v 0.513916 0.513916 0.513916 0.513916 c 0,0.04639 -0.00226,0.09198 -0.00677,0.136795 -0.00451,0.04481 -0.011269,0.08885 -0.020271,0.132126 -0.009,0.04327 -0.020248,0.08579 -0.03373,0.127548 -0.013481,0.04176 -0.029198,0.08278 -0.047142,0.123062 -0.018066,0.04028 -0.037628,0.07941 -0.058678,0.117356 -0.02105,0.03795 -0.043587,0.07472 -0.067604,0.110306 -0.024017,0.03558 -0.049515,0.06998 -0.076485,0.103164 -0.02697,0.03319 -0.055412,0.06517 -0.08532,0.09593 -0.030029,0.03076 -0.06134,0.05988 -0.093925,0.08731 -0.032585,0.02744 -0.066444,0.05319 -0.1015701,0.07724 -0.035126,0.02405 -0.071518,0.04639 -0.109169,0.06699 -0.037651,0.0206 -0.076561,0.03946 -0.1167221,0.05655 -0.040283,0.01709 -0.081329,0.03204 -0.1231308,0.04486 -0.041802,0.01282 -0.084358,0.0235 -0.1276627,0.03204 -0.043305,0.0085 -0.087357,0.01495 -0.1321487,0.01923 -0.044792,0.0043 -0.090324,0.0064 -0.1365891,0.0064 z m 0,-4.112304 c -0.049683,0 -0.097534,0.0044 -0.1435623,0.01318 -0.046028,0.0088 -0.090233,0.02197 -0.1326218,0.03955 -0.042389,0.01758 -0.082962,0.03955 -0.121727,0.06592 -0.038765,0.02637 -0.075722,0.05713 -0.110878,0.09229 -0.035156,0.03516 -0.065887,0.07208 -0.092209,0.11081 -0.026321,0.03873 -0.048233,0.07925 -0.06575,0.121612 -0.017517,0.04236 -0.03064,0.08655 -0.039383,0.132599 C 2.379364,16.687439 2.375,16.735352 2.375,16.785156 v 0.513916 0.513916 0.513916 0.513916 c 0,0.0498 0.00436,0.09778 0.013107,0.143921 0.00874,0.04614 0.021866,0.09045 0.039383,0.132935 0.017517,0.04248 0.039429,0.08313 0.06575,0.121948 0.026321,0.03882 0.057053,0.07581 0.092209,0.110962 0.035156,0.03516 0.072113,0.06586 0.110878,0.09213 0.038765,0.02627 0.079338,0.04813 0.121727,0.06558 0.042389,0.01746 0.086594,0.03052 0.1326218,0.03922 0.046028,0.0087 0.09388,0.01303 0.1435623,0.01303 0.049683,0 0.097565,-0.0043 0.1436386,-0.01303 0.046074,-0.0087 0.09034,-0.02176 0.1327896,-0.03922 0.04245,-0.01746 0.083084,-0.03931 0.1218948,-0.06558 0.038811,-0.02628 0.075798,-0.05698 0.1109543,-0.09213 0.035034,-0.03516 0.065704,-0.07214 0.092003,-0.110962 0.026299,-0.03882 0.048225,-0.07947 0.065773,-0.121948 0.017548,-0.04248 0.030716,-0.08679 0.039497,-0.132935 0.00878,-0.04614 0.013176,-0.09412 0.013176,-0.143921 v -0.513916 -0.513916 -0.513916 -0.513916 c 0,-0.0498 -0.00439,-0.09772 -0.013176,-0.143768 -0.00878,-0.04605 -0.02195,-0.09024 -0.039497,-0.132599 -0.017548,-0.04236 -0.039474,-0.08289 -0.065773,-0.121612 -0.026298,-0.03873 -0.056969,-0.07565 -0.092003,-0.11081 -0.035156,-0.03516 -0.072144,-0.06592 -0.1109543,-0.09229 -0.038811,-0.02637 -0.079445,-0.04834 -0.1218948,-0.06592 -0.04245,-0.01758 -0.086716,-0.03076 -0.1327896,-0.03955 -0.046074,-0.0088 -0.093956,-0.01318 -0.1436386,-0.01318 z"
   id="path15" />
		</g>
		<g
   id="g17"
   style="fill:#ffffff">
			<path
   style="fill:#ffffff"
   d="m 6.0556641,22.234375 c -0.022339,0 -0.043701,-0.0018 -0.064087,-0.0055 -0.020386,-0.0037 -0.039795,-0.0092 -0.058228,-0.01648 -0.018433,-0.0073 -0.035889,-0.01648 -0.052368,-0.02747 -0.016479,-0.01099 -0.031982,-0.0238 -0.046509,-0.03845 -0.014648,-0.01465 -0.027435,-0.03021 -0.038376,-0.04671 -0.010941,-0.01649 -0.020035,-0.03392 -0.027298,-0.05229 -0.00726,-0.01837 -0.012695,-0.03769 -0.016312,-0.05797 -0.00362,-0.02028 -0.00542,-0.04152 -0.00542,-0.06374 V 20.393783 18.8618 17.329818 15.797836 c 0,-0.02222 0.0018,-0.04346 0.00542,-0.06374 0.00362,-0.02028 0.00905,-0.0396 0.016312,-0.05797 0.00726,-0.01837 0.016357,-0.0358 0.027298,-0.05229 0.010941,-0.0165 0.023727,-0.03206 0.038376,-0.04671 0.014526,-0.01465 0.030029,-0.02746 0.046509,-0.03845 0.016479,-0.01099 0.033936,-0.02014 0.052368,-0.02746 0.018433,-0.0073 0.037842,-0.01282 0.058228,-0.01648 0.020386,-0.0037 0.041748,-0.0055 0.064087,-0.0055 H 6.312622 6.56958 6.826538 7.083496 c 0.046265,0 0.091766,0.0022 0.1365128,0.0066 0.044746,0.0044 0.088738,0.0109 0.1319809,0.01956 0.043243,0.0087 0.085739,0.01947 0.1274948,0.03238 0.041756,0.01291 0.082771,0.02792 0.1230545,0.04501 0.040283,0.01709 0.079285,0.03589 0.1170044,0.0564 0.03772,0.02051 0.074158,0.04273 0.109314,0.06665 0.035156,0.02393 0.069031,0.04956 0.1016235,0.07691 0.032593,0.02734 0.063904,0.0564 0.093933,0.08716 0.029907,0.03101 0.05835,0.06317 0.085312,0.09648 0.026962,0.03331 0.052445,0.06776 0.076431,0.103348 0.023987,0.03558 0.046478,0.0723 0.067459,0.110123 0.020981,0.03783 0.040451,0.07677 0.058395,0.116806 0.018066,0.04028 0.033844,0.08136 0.047348,0.123199 0.013504,0.04184 0.024734,0.08444 0.033707,0.127777 0.00897,0.04333 0.015686,0.0874 0.020157,0.132172 0.00447,0.04477 0.0067,0.09024 0.0067,0.136383 v 0.493408 0.493408 0.493409 0.493408 c 0,0.04639 -0.00223,0.09198 -0.0067,0.136795 -0.00447,0.04481 -0.011185,0.08885 -0.020157,0.132126 -0.00897,0.04327 -0.020203,0.08578 -0.033707,0.127548 -0.013504,0.04176 -0.029282,0.08278 -0.047348,0.123062 -0.017944,0.04028 -0.037415,0.07941 -0.058395,0.117355 -0.020981,0.03795 -0.043472,0.07472 -0.067459,0.110306 -0.023987,0.03558 -0.049469,0.06998 -0.076431,0.103165 -0.026962,0.03319 -0.055405,0.06517 -0.085312,0.09593 -0.030029,0.03076 -0.06134,0.05988 -0.093933,0.08731 -0.032593,0.02744 -0.066467,0.05319 -0.1016235,0.07724 -0.035156,0.02405 -0.071594,0.04639 -0.109314,0.06699 -0.03772,0.0206 -0.076721,0.03946 -0.1170044,0.05655 -0.040283,0.01709 -0.081299,0.03204 -0.1230545,0.04486 -0.041756,0.01282 -0.084251,0.0235 -0.1274948,0.03204 -0.043243,0.0085 -0.087235,0.01495 -0.1319809,0.01923 -0.044746,0.0043 -0.090248,0.0064 -0.1365128,0.0064 H 6.9035645 6.7236328 6.5437012 6.3637695 v 0.447266 0.447265 0.447266 0.447265 c 0,0.02222 -0.00192,0.04346 -0.00577,0.06374 -0.00385,0.02028 -0.00961,0.0396 -0.017303,0.05797 -0.00769,0.01837 -0.017304,0.0358 -0.028839,0.05229 -0.011536,0.01649 -0.024994,0.03206 -0.040375,0.04671 -0.015503,0.01465 -0.031616,0.02747 -0.048348,0.03845 -0.016731,0.01099 -0.03408,0.02014 -0.052055,0.02746 -0.017975,0.0073 -0.036575,0.01282 -0.055809,0.01648 -0.019234,0.0037 -0.0391,0.0055 -0.059608,0.0055 z m 1.7475586,-5.408203 c 0,-0.04956 -0.00439,-0.09735 -0.013184,-0.143356 -0.00879,-0.04601 -0.021973,-0.09023 -0.039551,-0.132645 -0.017578,-0.04242 -0.039551,-0.08304 -0.065918,-0.121842 -0.026367,-0.0388 -0.057129,-0.07579 -0.092285,-0.110946 -0.035156,-0.03516 -0.072113,-0.06592 -0.110878,-0.09229 -0.038765,-0.02637 -0.079338,-0.04834 -0.121727,-0.06592 -0.042389,-0.01758 -0.086594,-0.03076 -0.1326218,-0.03955 -0.046028,-0.0088 -0.09388,-0.01318 -0.1435623,-0.01318 H 6.9035645 6.7236328 6.5437012 6.3637695 v 0.853272 0.853271 0.853272 0.853271 h 0.1799316 0.1799316 0.1799316 0.1799316 c 0.049683,0 0.097534,-0.0044 0.1435623,-0.01318 0.046028,-0.0088 0.090233,-0.02197 0.1326218,-0.03955 0.042389,-0.01758 0.082962,-0.03955 0.121727,-0.06592 0.038765,-0.02637 0.075722,-0.05713 0.110878,-0.09229 0.035156,-0.03491 0.065918,-0.07172 0.092285,-0.110398 0.026367,-0.03868 0.04834,-0.07924 0.065918,-0.121658 0.017578,-0.04242 0.030762,-0.0867 0.039551,-0.132828 0.00879,-0.04613 0.013184,-0.0941 0.013184,-0.143905 V 18.306396 17.812988 17.31958 Z"
   id="path16" />
		</g>
		<g
   id="g18"
   style="fill:#ffffff">
			<path
   style="fill:#ffffff"
   d="m 10.435059,20.075195 c -0.06348,-0.02563 -0.123597,-0.05505 -0.180374,-0.08824 -0.05678,-0.03319 -0.110215,-0.07015 -0.160325,-0.110855 -0.05011,-0.04071 -0.096893,-0.08517 -0.1403652,-0.133377 -0.043472,-0.0482 -0.083633,-0.100144 -0.1204987,-0.155808 -0.036865,-0.05566 -0.069122,-0.112976 -0.096771,-0.171921 -0.027649,-0.05894 -0.05069,-0.119522 -0.069122,-0.181717 -0.018433,-0.06219 -0.032257,-0.126007 -0.041473,-0.191421 -0.00922,-0.06542 -0.013825,-0.132431 -0.013825,-0.201035 v -0.513916 -0.513916 -0.513916 -0.513916 c 0,-0.04639 0.00214,-0.09198 0.00642,-0.136795 0.00428,-0.04481 0.010704,-0.08885 0.019279,-0.132126 0.00858,-0.04327 0.019302,-0.08579 0.032188,-0.127548 0.012886,-0.04176 0.027931,-0.08278 0.045143,-0.123062 0.01709,-0.04028 0.035919,-0.07935 0.056473,-0.117218 0.020554,-0.03787 0.042831,-0.07455 0.066818,-0.110077 0.023987,-0.03552 0.049683,-0.06988 0.077072,-0.103119 0.027389,-0.03323 0.056473,-0.06534 0.087235,-0.09634 0.03088,-0.03076 0.06293,-0.05981 0.09614,-0.08716 0.03321,-0.02734 0.06759,-0.05298 0.103141,-0.0769 0.03555,-0.02393 0.07228,-0.04614 0.110192,-0.06665 0.03791,-0.02051 0.077,-0.03931 0.117286,-0.0564 0.04028,-0.01709 0.0813,-0.0321 0.123055,-0.04501 0.04176,-0.01291 0.08425,-0.02371 0.127495,-0.03238 0.04324,-0.0087 0.08723,-0.0152 0.131981,-0.01956 0.04475,-0.0044 0.09025,-0.0066 0.136512,-0.0066 0.04626,0 0.0918,0.0022 0.136589,0.0066 0.04479,0.0044 0.08884,0.01089 0.132149,0.01956 0.04331,0.0087 0.08586,0.01947 0.127663,0.03238 0.0418,0.01291 0.08285,0.02792 0.123131,0.04501 0.04016,0.01709 0.07919,0.03589 0.11708,0.0564 0.03789,0.02051 0.07463,0.04272 0.110215,0.06665 0.03558,0.02393 0.07001,0.04956 0.103256,0.0769 0.03325,0.02734 0.06532,0.0564 0.09621,0.08716 0.03076,0.03101 0.05984,0.06311 0.08723,0.09634 0.02739,0.03323 0.05309,0.0676 0.07707,0.103119 0.02399,0.03552 0.04626,0.07221 0.06682,0.110077 0.02055,0.03787 0.03938,0.07694 0.05647,0.117218 0.01709,0.04028 0.03207,0.0813 0.04494,0.123062 0.01286,0.04176 0.02361,0.08427 0.03221,0.127548 0.0086,0.04327 0.01507,0.08731 0.01939,0.132126 0.0043,0.04481 0.0065,0.09041 0.0065,0.136795 v 0.25708 0.25708 0.257081 0.25708 c 0,0.02222 -0.0018,0.04346 -0.0055,0.06374 -0.0037,0.02028 -0.0091,0.0396 -0.01643,0.05797 -0.0073,0.01837 -0.0164,0.0358 -0.02732,0.05229 -0.01092,0.01649 -0.02364,0.03206 -0.03817,0.04671 -0.01465,0.01465 -0.03024,0.02747 -0.04678,0.03845 -0.01654,0.01099 -0.03403,0.02014 -0.05246,0.02747 -0.01843,0.0073 -0.03781,0.01282 -0.05814,0.01648 -0.02032,0.0037 -0.0416,0.0055 -0.06381,0.0055 h -0.43689 -0.43689 -0.436889 -0.43689 v 0.179688 0.179687 0.179688 0.179687 c 0,0.03613 0.0024,0.07159 0.0073,0.106385 0.0049,0.03479 0.01225,0.06891 0.02208,0.102356 0.0098,0.03345 0.02213,0.06622 0.03691,0.09833 0.01479,0.03211 0.03206,0.06354 0.05183,0.0943 0.01965,0.03076 0.04114,0.05945 0.06445,0.08603 0.02332,0.02658 0.04846,0.05106 0.07544,0.0734 0.02698,0.02234 0.05579,0.04254 0.08643,0.06058 0.03064,0.01804 0.06311,0.03391 0.09741,0.04758 0.0343,0.01367 0.06869,0.02478 0.103187,0.03333 0.03449,0.0085 0.06909,0.01453 0.103783,0.01794 0.0347,0.0034 0.0695,0.0043 0.104424,0.0026 0.03492,-0.0017 0.06995,-0.006 0.10511,-0.01282 0.03503,-0.0068 0.06894,-0.01605 0.101692,-0.02763 0.03275,-0.01158 0.06435,-0.02553 0.09478,-0.04182 0.03043,-0.0163 0.05968,-0.03494 0.08773,-0.05592 0.02805,-0.02098 0.05491,-0.0443 0.08054,-0.06993 0.01538,-0.01538 0.03153,-0.02887 0.04843,-0.04045 0.01691,-0.01158 0.03458,-0.02126 0.05301,-0.02901 0.01843,-0.0078 0.03763,-0.01358 0.05759,-0.01747 0.01996,-0.0039 0.04068,-0.0058 0.06216,-0.0058 0.02136,0 0.04199,0.002 0.06189,0.0058 0.0199,0.0039 0.03906,0.0097 0.05749,0.01747 0.01843,0.0078 0.03613,0.01743 0.0531,0.02901 0.01697,0.01158 0.0332,0.02507 0.04871,0.04045 0.01538,0.01367 0.02884,0.02832 0.04037,0.04395 0.01154,0.01563 0.02115,0.03223 0.02884,0.0498 0.0077,0.01758 0.01346,0.03613 0.0173,0.05566 0.0038,0.01953 0.0058,0.04004 0.0058,0.06152 0,0.02124 -0.0019,0.04181 -0.0058,0.06168 -0.0038,0.01987 -0.0096,0.03903 -0.0173,0.05747 -0.0077,0.01843 -0.0173,0.03613 -0.02884,0.05307 -0.01154,0.01694 -0.02499,0.03311 -0.04037,0.04849 -0.0481,0.04809 -0.09839,0.09173 -0.150902,0.13095 -0.05251,0.03922 -0.107246,0.07401 -0.164223,0.104401 -0.05698,0.0304 -0.116196,0.0564 -0.177681,0.07803 -0.06149,0.02164 -0.125236,0.03891 -0.191276,0.05185 -0.06592,0.0127 -0.131531,0.02063 -0.196831,0.02379 -0.0653,0.0032 -0.130287,0.0015 -0.194954,-0.0049 -0.06467,-0.0064 -0.129013,-0.01761 -0.193031,-0.03361 -0.06402,-0.01601 -0.127709,-0.03682 -0.191063,-0.06245 z m 0.513672,-4.009765 c -0.04968,0 -0.09754,0.0044 -0.143563,0.01318 -0.04603,0.0088 -0.09023,0.02197 -0.132622,0.03955 -0.04239,0.01758 -0.08296,0.03955 -0.121727,0.06592 -0.03877,0.02637 -0.07572,0.05713 -0.110878,0.09229 -0.03516,0.03516 -0.06589,0.07208 -0.09221,0.11081 -0.02632,0.03873 -0.04823,0.07925 -0.06575,0.121612 -0.01752,0.04236 -0.03064,0.08655 -0.03938,0.132599 -0.0087,0.04605 -0.01311,0.09396 -0.01311,0.143768 v 0.179932 0.179932 0.179931 0.179932 h 0.359741 0.359742 0.359741 0.359741 V 17.324951 17.14502 16.965088 16.785156 c 0,-0.0498 -0.0044,-0.09772 -0.01318,-0.143768 -0.0088,-0.04605 -0.02195,-0.09024 -0.0395,-0.132599 -0.01755,-0.04236 -0.03947,-0.08289 -0.06577,-0.121612 -0.0263,-0.03873 -0.05697,-0.07565 -0.092,-0.11081 -0.03516,-0.03516 -0.07214,-0.06592 -0.110955,-0.09229 -0.03881,-0.02637 -0.07944,-0.04834 -0.121894,-0.06592 -0.04245,-0.01758 -0.08672,-0.03076 -0.13279,-0.03955 -0.04607,-0.0088 -0.09396,-0.01318 -0.143638,-0.01318 z"
   id="path17" />
		</g>
		<g
   id="g19"
   style="fill:#ffffff">
			<path
   style="fill:#ffffff"
   d="m 13.827637,20.177734 c -0.02234,0 -0.0437,-0.0018 -0.06409,-0.0055 -0.02039,-0.0036 -0.03979,-0.0091 -0.05823,-0.01637 -0.01843,-0.0073 -0.03589,-0.01633 -0.05237,-0.02718 -0.01648,-0.01085 -0.03198,-0.02348 -0.04651,-0.03789 -0.01465,-0.01465 -0.02744,-0.03021 -0.03838,-0.04672 -0.01094,-0.01651 -0.02003,-0.03397 -0.0273,-0.0524 -0.0073,-0.01843 -0.01269,-0.03784 -0.01631,-0.05826 -0.0036,-0.02042 -0.0054,-0.04184 -0.0054,-0.0643 v -1.017823 -1.017822 -1.017822 -1.017823 c 0,-0.02222 0.0018,-0.04346 0.0054,-0.06374 0.0036,-0.02028 0.009,-0.0396 0.01631,-0.05797 0.0073,-0.01837 0.01636,-0.0358 0.0273,-0.05229 0.01094,-0.01649 0.02373,-0.03206 0.03838,-0.04671 0.01453,-0.01465 0.03003,-0.02747 0.04651,-0.03845 0.01648,-0.01099 0.03394,-0.02014 0.05237,-0.02747 0.01843,-0.0073 0.03784,-0.01282 0.05823,-0.01648 0.02038,-0.0037 0.04175,-0.0055 0.06409,-0.0055 h 0.256958 0.256958 0.256958 0.256958 c 0.04626,0 0.09177,0.0022 0.136513,0.0066 0.04475,0.0044 0.08874,0.0109 0.13198,0.01956 0.04324,0.0087 0.08574,0.01947 0.127495,0.03238 0.04176,0.01291 0.08277,0.02792 0.123055,0.04501 0.04028,0.01709 0.07928,0.03589 0.117004,0.0564 0.03772,0.02051 0.07416,0.04272 0.109314,0.06665 0.03516,0.02393 0.06903,0.04956 0.101624,0.0769 0.03259,0.02734 0.0639,0.0564 0.09393,0.08716 0.02991,0.03101 0.05835,0.06317 0.08531,0.09648 0.02696,0.03331 0.05244,0.06776 0.07643,0.103348 0.02399,0.03558 0.04648,0.0723 0.06746,0.110122 0.02098,0.03783 0.04045,0.07677 0.0584,0.116806 0.01807,0.04028 0.03384,0.08136 0.04735,0.1232 0.0135,0.04184 0.02473,0.08444 0.03371,0.127777 0.009,0.04333 0.01569,0.0874 0.02016,0.132172 0.0045,0.04477 0.0067,0.09024 0.0067,0.136383 v 0.760742 0.760742 0.760742 0.760743 c 0,0.02246 -0.0019,0.04388 -0.0058,0.0643 -0.0038,0.02042 -0.0096,0.03983 -0.0173,0.05826 -0.0077,0.01843 -0.0173,0.03589 -0.02884,0.0524 -0.01153,0.01651 -0.02499,0.03207 -0.04037,0.04672 -0.0155,0.01441 -0.03162,0.02704 -0.04835,0.03789 -0.01673,0.01085 -0.03408,0.01991 -0.05206,0.02718 -0.01797,0.0073 -0.03658,0.01273 -0.05581,0.01637 -0.01923,0.0036 -0.0391,0.0055 -0.05961,0.0055 -0.02234,0 -0.0437,-0.0018 -0.06409,-0.0055 -0.02039,-0.0036 -0.03979,-0.0091 -0.05823,-0.01637 -0.01843,-0.0073 -0.03589,-0.01633 -0.05237,-0.02718 -0.01648,-0.01085 -0.03198,-0.02348 -0.04651,-0.03789 -0.01453,-0.01465 -0.02725,-0.03021 -0.03817,-0.04672 -0.01092,-0.01651 -0.02003,-0.03397 -0.02732,-0.0524 -0.0073,-0.01843 -0.01277,-0.03784 -0.01643,-0.05826 -0.0037,-0.02042 -0.0055,-0.04184 -0.0055,-0.0643 v -0.760743 -0.760742 -0.760742 -0.760742 c 0,-0.04956 -0.0044,-0.09735 -0.01318,-0.143357 -0.0088,-0.04601 -0.02197,-0.09023 -0.03955,-0.132644 -0.01758,-0.04242 -0.03955,-0.08304 -0.06592,-0.121842 -0.02637,-0.0388 -0.05713,-0.07579 -0.09229,-0.110946 -0.03516,-0.03516 -0.07211,-0.06592 -0.110878,-0.09229 -0.03876,-0.02637 -0.07934,-0.04834 -0.121727,-0.06592 -0.04239,-0.01758 -0.08659,-0.03076 -0.132622,-0.03955 -0.04603,-0.0088 -0.09388,-0.01318 -0.143562,-0.01318 H 14.675483 14.495551 14.31562 14.135688 v 0.940674 0.940674 0.940673 0.940674 c 0,0.02246 -0.0019,0.04388 -0.0058,0.0643 -0.0038,0.02042 -0.0096,0.03983 -0.0173,0.05826 -0.0077,0.01843 -0.0173,0.03589 -0.02884,0.0524 -0.01154,0.01651 -0.02499,0.03207 -0.04037,0.04672 -0.0155,0.0144 -0.03162,0.02704 -0.04835,0.03789 -0.01673,0.01085 -0.03408,0.01991 -0.05205,0.02717 -0.01797,0.0073 -0.03658,0.01273 -0.05581,0.01637 -0.01923,0.0036 -0.0391,0.0055 -0.05961,0.0055 z"
   id="path18" />
		</g>
	</g>
	<g
   style="enable-background:new"
   id="g21">
	</g>
	<g
   style="enable-background:new;fill:#ffffff"
   id="g27">
		<g
   id="g22"
   style="fill:#ffffff">
			<path
   style="fill:#ffffff"
   d="m 19.541992,20.075195 c -0.06348,-0.02563 -0.123596,-0.05505 -0.180374,-0.08824 -0.05678,-0.03319 -0.110214,-0.07015 -0.160324,-0.110855 -0.05011,-0.04071 -0.09689,-0.08517 -0.140366,-0.133377 -0.04347,-0.0482 -0.08363,-0.100144 -0.120498,-0.155808 -0.03687,-0.05566 -0.06912,-0.112976 -0.09677,-0.171921 -0.02765,-0.05894 -0.05069,-0.119522 -0.06912,-0.181717 -0.01843,-0.06219 -0.03226,-0.126007 -0.04147,-0.191421 -0.0092,-0.06542 -0.01383,-0.132431 -0.01383,-0.201035 v -0.513916 -0.513916 -0.513916 -0.513916 c 0,-0.04639 0.0021,-0.09198 0.0064,-0.136795 0.0043,-0.04481 0.0107,-0.08885 0.01928,-0.132126 0.0086,-0.04327 0.0193,-0.08579 0.03219,-0.127548 0.01289,-0.04176 0.02793,-0.08278 0.04514,-0.123062 0.01709,-0.04028 0.03592,-0.07935 0.05647,-0.117218 0.02055,-0.03787 0.04283,-0.07455 0.06682,-0.110077 0.02399,-0.03552 0.04968,-0.06988 0.07707,-0.103119 0.02739,-0.03323 0.05647,-0.06534 0.08723,-0.09634 0.03088,-0.03076 0.06293,-0.05981 0.09614,-0.08716 0.03321,-0.02734 0.06759,-0.05298 0.103142,-0.0769 0.03555,-0.02393 0.07228,-0.04614 0.110191,-0.06665 0.03791,-0.02051 0.077,-0.03931 0.117287,-0.0564 0.04028,-0.01709 0.0813,-0.0321 0.123055,-0.04501 0.04175,-0.01291 0.08425,-0.02371 0.127494,-0.03238 0.04324,-0.0087 0.08723,-0.0152 0.131981,-0.01956 0.04475,-0.0044 0.09025,-0.0066 0.136513,-0.0066 0.04639,0 0.09198,0.0022 0.136795,0.0066 0.04481,0.0044 0.08885,0.01089 0.132126,0.01956 0.04327,0.0087 0.08579,0.01947 0.127548,0.03238 0.04176,0.01291 0.08278,0.02792 0.123062,0.04501 0.04028,0.01709 0.07935,0.03589 0.117218,0.0564 0.03787,0.02051 0.07456,0.04272 0.110077,0.06665 0.03552,0.02393 0.06989,0.04956 0.103119,0.0769 0.03323,0.02734 0.06534,0.0564 0.09634,0.08716 0.03076,0.03101 0.05981,0.06311 0.08717,0.09634 0.02736,0.03323 0.05302,0.0676 0.07701,0.103119 0.02399,0.03552 0.0463,0.07221 0.06694,0.110077 0.02065,0.03787 0.03963,0.07694 0.05696,0.117218 0.01709,0.04028 0.03204,0.0813 0.04486,0.123062 0.01282,0.04176 0.0235,0.08427 0.03204,0.127548 0.0085,0.04327 0.01495,0.08731 0.01923,0.132126 0.0043,0.04481 0.0064,0.09041 0.0064,0.136795 v 0.25708 0.25708 0.257081 0.25708 c 0,0.02222 -0.0018,0.04346 -0.0055,0.06374 -0.0037,0.02028 -0.0092,0.0396 -0.01648,0.05797 -0.0073,0.01837 -0.01648,0.0358 -0.02747,0.05229 -0.01099,0.01649 -0.0238,0.03206 -0.03845,0.04671 -0.0144,0.01465 -0.02985,0.02747 -0.0463,0.03845 -0.01645,0.01099 -0.03391,0.02014 -0.05234,0.02747 -0.01843,0.0073 -0.03784,0.01282 -0.0582,0.01648 -0.02036,0.0037 -0.04166,0.0055 -0.06387,0.0055 h -0.436889 -0.43689 -0.436889 -0.43689 v 0.179688 0.179687 0.179688 0.179687 c 0,0.03613 0.0024,0.07159 0.0073,0.106385 0.0049,0.03479 0.01225,0.06891 0.02208,0.102356 0.0098,0.03345 0.02212,0.06622 0.03691,0.09833 0.01479,0.03211 0.03206,0.06354 0.05183,0.0943 0.01965,0.03076 0.04114,0.05945 0.06445,0.08603 0.02332,0.02658 0.04846,0.05106 0.07544,0.0734 0.02698,0.02234 0.05579,0.04254 0.08642,0.06058 0.03064,0.01804 0.06311,0.03391 0.09741,0.04758 0.0343,0.01367 0.06873,0.02478 0.103248,0.03333 0.03452,0.0085 0.06915,0.01453 0.103844,0.01794 0.0347,0.0034 0.06947,0.0043 0.104301,0.0026 0.03483,-0.0017 0.06971,-0.006 0.104622,-0.01282 0.03516,-0.0068 0.06915,-0.01605 0.101975,-0.02763 0.03282,-0.01158 0.06447,-0.02553 0.09492,-0.04182 0.03046,-0.0163 0.05972,-0.03494 0.08778,-0.05592 0.02806,-0.02098 0.05492,-0.0443 0.08055,-0.06993 0.01538,-0.01538 0.03156,-0.02887 0.04849,-0.04045 0.01694,-0.01158 0.03464,-0.02126 0.05307,-0.02901 0.01843,-0.0078 0.0376,-0.01358 0.05747,-0.01747 0.01987,-0.0039 0.04043,-0.0058 0.06168,-0.0058 0.02148,0 0.04224,0.002 0.06224,0.0058 0.02,0.0039 0.03926,0.0097 0.05776,0.01747 0.01849,0.0078 0.03622,0.01743 0.05318,0.02901 0.01695,0.01158 0.03313,0.02507 0.04851,0.04045 0.01538,0.01367 0.02887,0.02832 0.04045,0.04395 0.01158,0.01563 0.02126,0.03223 0.02901,0.0498 0.0078,0.01758 0.01358,0.03613 0.01747,0.05566 0.0039,0.01953 0.0058,0.04004 0.0058,0.06152 0,0.02124 -0.002,0.04181 -0.0058,0.06168 -0.0039,0.01987 -0.0097,0.03903 -0.01747,0.05747 -0.0078,0.01843 -0.01743,0.03613 -0.02901,0.05307 -0.01158,0.01694 -0.02507,0.03311 -0.04045,0.04849 -0.04809,0.04809 -0.09839,0.09173 -0.150894,0.13095 -0.05251,0.03922 -0.107223,0.07401 -0.164169,0.104401 -0.05695,0.0304 -0.11612,0.0564 -0.177536,0.07803 -0.06142,0.02164 -0.125076,0.03891 -0.190994,0.05185 -0.06592,0.0127 -0.131562,0.02063 -0.196907,0.02379 -0.06535,0.0032 -0.130394,0.0015 -0.195122,-0.0049 -0.06473,-0.0064 -0.129135,-0.01761 -0.193199,-0.03361 -0.06407,-0.01601 -0.127785,-0.03682 -0.19114,-0.06245 z m 0.513672,-4.009765 c -0.04968,0 -0.09753,0.0044 -0.143562,0.01318 -0.04603,0.0088 -0.09023,0.02197 -0.132622,0.03955 -0.04239,0.01758 -0.08296,0.03955 -0.121727,0.06592 -0.03876,0.02637 -0.07572,0.05713 -0.110878,0.09229 -0.03516,0.03516 -0.06589,0.07208 -0.09221,0.11081 -0.02632,0.03873 -0.04823,0.07925 -0.06575,0.121612 -0.01752,0.04236 -0.03064,0.08655 -0.03938,0.132599 -0.0087,0.04605 -0.01311,0.09396 -0.01311,0.143768 v 0.179932 0.179932 0.179931 0.179932 h 0.359741 0.359741 0.359741 0.359742 V 17.324951 17.14502 16.965088 16.785156 c 0,-0.0498 -0.0044,-0.09772 -0.01318,-0.143768 -0.0088,-0.04605 -0.02197,-0.09024 -0.03955,-0.132599 -0.01758,-0.04236 -0.03955,-0.08289 -0.06592,-0.121612 -0.02637,-0.03873 -0.05713,-0.07565 -0.09229,-0.11081 -0.03516,-0.03516 -0.07208,-0.06592 -0.110809,-0.09229 -0.03873,-0.02637 -0.07925,-0.04834 -0.121613,-0.06592 -0.04236,-0.01758 -0.08655,-0.03076 -0.132599,-0.03955 -0.04605,-0.0088 -0.09396,-0.01318 -0.143768,-0.01318 z"
   id="path21" />
		</g>
		<g
   id="g23"
   style="fill:#ffffff">
			<path
   style="fill:#ffffff"
   d="m 22.93457,22.234375 c -0.02246,0 -0.04388,-0.0018 -0.0643,-0.0055 -0.02042,-0.0037 -0.03983,-0.0092 -0.05826,-0.01648 -0.01843,-0.0073 -0.03589,-0.01648 -0.0524,-0.02747 -0.01651,-0.01099 -0.03207,-0.0238 -0.04672,-0.03845 -0.01441,-0.01465 -0.02704,-0.03021 -0.03789,-0.04671 -0.01085,-0.01649 -0.01991,-0.03392 -0.02718,-0.05229 -0.0073,-0.01837 -0.01273,-0.03769 -0.01637,-0.05797 -0.0036,-0.02028 -0.0055,-0.04152 -0.0055,-0.06374 V 20.393783 18.8618 17.329818 15.797836 c 0,-0.02222 0.0018,-0.04346 0.0055,-0.06374 0.0036,-0.02028 0.0091,-0.0396 0.01637,-0.05797 0.0073,-0.01837 0.01633,-0.0358 0.02718,-0.05229 0.01085,-0.0165 0.02348,-0.03206 0.03789,-0.04671 0.01465,-0.01465 0.03021,-0.02746 0.04672,-0.03845 0.01651,-0.01099 0.03397,-0.02014 0.0524,-0.02746 0.01843,-0.0073 0.03784,-0.01282 0.05826,-0.01648 0.02042,-0.0037 0.04184,-0.0055 0.0643,-0.0055 h 0.25708 0.25708 0.257081 0.25708 c 0.04614,0 0.09155,0.0022 0.13623,0.0066 0.04468,0.0044 0.08862,0.0109 0.131836,0.01956 0.04321,0.0087 0.08569,0.01947 0.127441,0.03238 0.04175,0.01291 0.08276,0.02792 0.123047,0.04501 0.04028,0.01709 0.07928,0.03589 0.117005,0.0564 0.03772,0.02051 0.07416,0.04273 0.109314,0.06665 0.03516,0.02393 0.06903,0.04956 0.101623,0.07691 0.03259,0.02734 0.0639,0.0564 0.09393,0.08716 0.03003,0.03101 0.05853,0.06317 0.08553,0.09648 0.02699,0.03331 0.05248,0.06776 0.07646,0.103348 0.02399,0.03558 0.04648,0.0723 0.06749,0.110123 0.02101,0.03783 0.04054,0.07677 0.05861,0.116806 0.01782,0.04028 0.03345,0.08136 0.04686,0.123199 0.01341,0.04184 0.02461,0.08444 0.03359,0.127777 0.009,0.04333 0.01572,0.0874 0.02022,0.132172 0.0045,0.04477 0.0068,0.09024 0.0068,0.136383 v 0.493408 0.493408 0.493409 0.493408 c 0,0.04639 -0.0023,0.09198 -0.0068,0.136795 -0.0045,0.04481 -0.01124,0.08885 -0.02022,0.132126 -0.009,0.04327 -0.02017,0.08578 -0.03359,0.127548 -0.01341,0.04176 -0.02904,0.08278 -0.04686,0.123062 -0.01807,0.04028 -0.0376,0.07941 -0.05861,0.117355 -0.02101,0.03795 -0.0435,0.07472 -0.06749,0.110306 -0.02399,0.03558 -0.04947,0.06998 -0.07646,0.103165 -0.02699,0.03319 -0.0555,0.06517 -0.08553,0.09593 -0.03003,0.03076 -0.06134,0.05988 -0.09393,0.08731 -0.03259,0.02744 -0.06647,0.05319 -0.101623,0.07724 -0.03516,0.02405 -0.07159,0.04639 -0.109314,0.06699 -0.03772,0.0206 -0.07672,0.03946 -0.117005,0.05655 -0.04028,0.01709 -0.0813,0.03204 -0.123047,0.04486 -0.04175,0.01282 -0.08423,0.0235 -0.127441,0.03204 -0.04321,0.0085 -0.08716,0.01495 -0.131836,0.01923 -0.04468,0.0043 -0.09009,0.0064 -0.13623,0.0064 h -0.179932 -0.179932 -0.179931 -0.179932 v 0.447266 0.447265 0.447266 0.447265 c 0,0.02222 -0.002,0.04346 -0.0058,0.06374 -0.0039,0.02028 -0.0097,0.0396 -0.01747,0.05797 -0.0078,0.01837 -0.01743,0.0358 -0.02901,0.05229 -0.01158,0.01649 -0.02507,0.03206 -0.04045,0.04671 -0.01538,0.01465 -0.03143,0.02747 -0.04814,0.03845 -0.01671,0.01099 -0.03407,0.02014 -0.05208,0.02746 -0.018,0.0073 -0.03665,0.01282 -0.05592,0.01648 -0.01927,0.0037 -0.03917,0.0055 -0.05968,0.0055 z m 1.747071,-5.408203 c 0,-0.04956 -0.0044,-0.09735 -0.01317,-0.143356 -0.0088,-0.04601 -0.02193,-0.09023 -0.03944,-0.132645 -0.01752,-0.04242 -0.0394,-0.08304 -0.06563,-0.121842 -0.02623,-0.0388 -0.05681,-0.07579 -0.09172,-0.110946 -0.03516,-0.03516 -0.07214,-0.06592 -0.110947,-0.09229 -0.0388,-0.02637 -0.07942,-0.04834 -0.121842,-0.06592 -0.04242,-0.01758 -0.08664,-0.03076 -0.132644,-0.03955 -0.04601,-0.0088 -0.0938,-0.01318 -0.143357,-0.01318 H 23.78296 23.603028 23.423097 23.243165 v 0.853272 0.853271 0.853272 0.853271 h 0.179932 0.179931 0.179932 0.179932 c 0.04956,0 0.09735,-0.0044 0.143356,-0.01318 0.04601,-0.0088 0.09023,-0.02197 0.132645,-0.03955 0.04242,-0.01758 0.08304,-0.03955 0.121841,-0.06592 0.0388,-0.02637 0.07579,-0.05713 0.110947,-0.09229 0.03491,-0.03491 0.06549,-0.07172 0.09172,-0.110398 0.02623,-0.03868 0.04811,-0.07924 0.06563,-0.121658 0.01752,-0.04242 0.03067,-0.0867 0.03944,-0.132828 0.0088,-0.04613 0.01317,-0.0941 0.01317,-0.143905 V 18.306396 17.812988 17.31958 Z"
   id="path22" />
		</g>
		<g
   id="g24"
   style="fill:#ffffff">
			<path
   style="fill:#ffffff"
   d="m 26.923828,20.177734 c -0.02051,0 -0.0404,-0.0018 -0.05968,-0.0055 -0.01927,-0.0036 -0.03792,-0.0091 -0.05592,-0.01637 -0.01801,-0.0073 -0.03537,-0.01633 -0.05208,-0.02718 -0.01671,-0.01085 -0.03276,-0.02348 -0.04814,-0.03789 -0.01538,-0.01465 -0.02887,-0.03021 -0.04045,-0.04672 -0.01158,-0.01651 -0.02126,-0.03397 -0.02901,-0.0524 -0.0078,-0.01843 -0.01358,-0.03784 -0.01747,-0.05826 -0.0039,-0.02042 -0.0058,-0.04184 -0.0058,-0.0643 v -1.541993 -1.541992 -1.541992 -1.541992 c 0,-0.02246 0.002,-0.04388 0.0058,-0.0643 0.0039,-0.02042 0.0097,-0.03982 0.01747,-0.05826 0.0078,-0.01843 0.01743,-0.03589 0.02901,-0.0524 0.01158,-0.01651 0.02507,-0.03207 0.04045,-0.04672 0.01538,-0.0144 0.03143,-0.02704 0.04814,-0.03789 0.01671,-0.01085 0.03407,-0.01991 0.05208,-0.02717 0.018,-0.0073 0.03665,-0.01273 0.05592,-0.01637 0.01927,-0.0036 0.03917,-0.0055 0.05968,-0.0055 0.02222,0 0.04346,0.0018 0.06374,0.0055 0.02028,0.0036 0.0396,0.0091 0.05797,0.01637 0.01837,0.0073 0.0358,0.01633 0.05229,0.02717 0.01649,0.01085 0.03206,0.02348 0.04671,0.03789 0.01465,0.01465 0.02747,0.03021 0.03845,0.04672 0.01099,0.01651 0.02014,0.03397 0.02747,0.0524 0.0073,0.01843 0.01282,0.03784 0.01648,0.05826 0.0037,0.02042 0.0055,0.04184 0.0055,0.0643 v 0.447021 0.447022 0.447021 0.447022 h 0.179932 0.179931 0.179932 0.179931 c 0.04614,0 0.09155,0.0022 0.136231,0.0066 0.04468,0.0044 0.08862,0.0109 0.131836,0.01956 0.04321,0.0087 0.08569,0.01947 0.127441,0.03238 0.04175,0.01291 0.08276,0.02792 0.123047,0.04501 0.04028,0.01709 0.07941,0.03589 0.117355,0.0564 0.03795,0.02051 0.07472,0.04273 0.110306,0.06665 0.03558,0.02393 0.06998,0.04956 0.103165,0.07691 0.03319,0.02734 0.06517,0.0564 0.09593,0.08716 0.03076,0.03101 0.05988,0.06317 0.08731,0.09648 0.02744,0.03331 0.05319,0.06776 0.07724,0.103348 0.02405,0.03558 0.04639,0.0723 0.06699,0.110123 0.0206,0.03783 0.03946,0.07677 0.05655,0.116806 0.01709,0.04028 0.03204,0.08136 0.04486,0.123199 0.01282,0.04184 0.0235,0.08444 0.03204,0.127777 0.0085,0.04333 0.01495,0.0874 0.01923,0.132172 0.0043,0.04477 0.0064,0.09024 0.0064,0.136383 v 0.760742 0.760742 0.760743 0.760742 c 0,0.02246 -0.0018,0.04388 -0.0055,0.0643 -0.0036,0.02042 -0.0091,0.03983 -0.01637,0.05826 -0.0073,0.01843 -0.01633,0.03589 -0.02718,0.0524 -0.01085,0.01651 -0.02348,0.03207 -0.03789,0.04672 -0.01465,0.01441 -0.03027,0.02704 -0.04686,0.03789 -0.01659,0.01085 -0.03413,0.01991 -0.05263,0.02718 -0.01849,0.0073 -0.03793,0.01273 -0.0583,0.01637 -0.02037,0.0036 -0.04167,0.0055 -0.06389,0.0055 -0.02051,0 -0.0404,-0.0018 -0.05968,-0.0055 -0.01927,-0.0036 -0.03792,-0.0091 -0.05592,-0.01637 -0.01801,-0.0073 -0.03537,-0.01633 -0.05208,-0.02718 -0.01671,-0.01085 -0.03276,-0.02348 -0.04814,-0.03789 -0.01538,-0.01465 -0.02887,-0.03021 -0.04045,-0.04672 -0.01158,-0.01651 -0.02126,-0.03397 -0.02901,-0.0524 -0.0078,-0.01843 -0.01358,-0.03784 -0.01747,-0.05826 -0.0039,-0.02042 -0.0058,-0.04184 -0.0058,-0.0643 v -0.760742 -0.760743 -0.760742 -0.760742 c 0,-0.04956 -0.0044,-0.09735 -0.01317,-0.143356 -0.0088,-0.04601 -0.02193,-0.09023 -0.03944,-0.132645 -0.01752,-0.04242 -0.0394,-0.08304 -0.06563,-0.121841 -0.02623,-0.0388 -0.05681,-0.07579 -0.09172,-0.110947 -0.03516,-0.03516 -0.07214,-0.06592 -0.110946,-0.09229 -0.0388,-0.02637 -0.07942,-0.04834 -0.121842,-0.06592 -0.04242,-0.01758 -0.08664,-0.03076 -0.132644,-0.03955 -0.04601,-0.0088 -0.0938,-0.01318 -0.143357,-0.01318 H 27.772245 27.592313 27.412382 27.23245 v 0.940674 0.940674 0.940674 0.940673 c 0,0.02246 -0.0018,0.04388 -0.0055,0.0643 -0.0037,0.02042 -0.0092,0.03983 -0.01648,0.05826 -0.0073,0.01843 -0.01648,0.03589 -0.02747,0.0524 -0.01099,0.01651 -0.0238,0.03207 -0.03845,0.04672 -0.01465,0.0144 -0.03021,0.02704 -0.04671,0.03789 -0.01649,0.01085 -0.03392,0.01991 -0.05229,0.02718 -0.01837,0.0073 -0.03769,0.01272 -0.05797,0.01637 -0.02028,0.0036 -0.04152,0.0055 -0.06374,0.0055 z"
   id="path23" />
		</g>
		<g
   id="g25"
   style="fill:#ffffff">
			<path
   style="fill:#ffffff"
   d="m 30.439453,22.234375 c -0.02222,0 -0.04346,-0.0018 -0.06374,-0.0055 -0.02028,-0.0037 -0.0396,-0.0092 -0.05797,-0.01648 -0.01837,-0.0073 -0.0358,-0.01648 -0.05229,-0.02747 -0.0165,-0.01099 -0.03206,-0.0238 -0.04671,-0.03845 -0.01465,-0.01465 -0.02741,-0.03021 -0.0383,-0.04671 -0.01089,-0.01649 -0.01993,-0.03392 -0.02713,-0.05229 -0.0072,-0.01837 -0.01257,-0.03769 -0.01614,-0.05797 -0.0036,-0.02028 -0.0053,-0.04152 -0.0053,-0.06374 0,-0.02246 0.0018,-0.04388 0.0053,-0.0643 0.0036,-0.02042 0.0089,-0.03983 0.01614,-0.05826 0.0072,-0.01843 0.01624,-0.03589 0.02713,-0.0524 0.01089,-0.01651 0.02365,-0.03207 0.0383,-0.04672 0.01465,-0.0144 0.03021,-0.02704 0.04671,-0.03789 0.01649,-0.01085 0.03392,-0.01991 0.05229,-0.02718 0.01837,-0.0073 0.03769,-0.01273 0.05797,-0.01637 0.02028,-0.0036 0.04152,-0.0055 0.06374,-0.0055 0.03955,0 0.07806,-0.0029 0.11557,-0.0086 0.03751,-0.0058 0.07401,-0.01439 0.109528,-0.02593 0.03552,-0.01153 0.07007,-0.02597 0.103668,-0.04332 0.0336,-0.01735 0.06625,-0.03761 0.09799,-0.06081 0.03174,-0.02319 0.06104,-0.0484 0.08788,-0.07562 0.02684,-0.02722 0.05122,-0.05646 0.07314,-0.08771 0.02191,-0.03125 0.04135,-0.06451 0.0583,-0.09979 0.01695,-0.03528 0.03142,-0.07257 0.04338,-0.111878 l 0.09253,-0.308593 0.09253,-0.308594 0.09253,-0.308594 0.09253,-0.308594 -0.300781,-1.004883 -0.300781,-1.004882 -0.300782,-1.004883 -0.300781,-1.004883 c -0.0068,-0.02051 -0.01154,-0.04083 -0.0141,-0.06096 -0.0026,-0.02013 -0.003,-0.04005 -0.0013,-0.05977 0.0017,-0.01971 0.0056,-0.03921 0.01154,-0.05849 0.006,-0.01927 0.0141,-0.03831 0.02435,-0.05711 0.01025,-0.0188 0.02179,-0.03613 0.03462,-0.05199 0.01283,-0.01585 0.02696,-0.03023 0.0424,-0.04311 0.01544,-0.01288 0.0322,-0.02426 0.05028,-0.03413 0.01808,-0.0099 0.03749,-0.01823 0.05824,-0.02507 0.02051,-0.0051 0.04071,-0.0084 0.06059,-0.0097 0.01988,-0.0013 0.03944,-7.48e-4 0.05867,0.0018 0.01923,0.0025 0.03812,0.0069 0.05665,0.01329 0.01854,0.0064 0.03673,0.01466 0.05455,0.02492 0.01807,0.0105 0.03473,0.02197 0.04999,0.03445 0.01526,0.01248 0.02911,0.02597 0.04156,0.0405 0.01245,0.01453 0.0235,0.03009 0.03314,0.04672 0.0096,0.01663 0.01788,0.03433 0.02472,0.05313 l 0.233886,0.783936 0.233887,0.783935 0.233887,0.783936 0.233886,0.783935 0.236573,-0.783935 0.236572,-0.783936 0.236572,-0.783935 0.236573,-0.783936 c 0.0051,-0.0188 0.01196,-0.0365 0.02051,-0.05313 0.0085,-0.01663 0.0188,-0.0322 0.03076,-0.04672 0.01196,-0.01453 0.02564,-0.02801 0.04102,-0.0405 0.01538,-0.01248 0.03247,-0.02396 0.05127,-0.03445 0.0188,-0.01025 0.03784,-0.01855 0.05711,-0.02492 0.01927,-0.0064 0.03877,-0.01079 0.05849,-0.01329 0.01971,-0.0025 0.03964,-0.0031 0.05977,-0.0018 0.02013,0.0013 0.04045,0.0046 0.06096,0.0097 0.02051,0.0068 0.03979,0.0152 0.05783,0.02507 0.01804,0.0099 0.03482,0.02126 0.05032,0.03413 0.0155,0.01288 0.02972,0.02725 0.04263,0.04311 0.01291,0.01585 0.0245,0.03319 0.03476,0.05199 0.01025,0.0188 0.01837,0.03784 0.02435,0.05711 0.006,0.01927 0.0098,0.03877 0.01154,0.05849 0.0017,0.01971 0.0013,0.03964 -0.0013,0.05977 -0.0026,0.02013 -0.0073,0.04045 -0.0141,0.06096 l -0.308594,1.028076 -0.308594,1.028076 -0.308593,1.028077 -0.308594,1.028076 -0.09766,0.329101 -0.09766,0.329102 -0.09766,0.329102 -0.09766,0.329101 c -0.02393,0.07349 -0.05194,0.142945 -0.08403,0.208374 -0.03209,0.06543 -0.06825,0.126831 -0.108474,0.184204 -0.04022,0.05737 -0.0845,0.110718 -0.132828,0.160035 -0.04833,0.04932 -0.100693,0.0946 -0.157089,0.135864 -0.06006,0.04443 -0.121826,0.08337 -0.185303,0.116791 -0.06348,0.03342 -0.128662,0.06131 -0.195557,0.08365 -0.06689,0.02234 -0.135498,0.03912 -0.20581,0.05032 -0.07031,0.0112 -0.142333,0.01682 -0.216064,0.01682 z"
   id="path24" />
		</g>
		<g
   id="g26"
   style="fill:#ffffff">
			<path
   style="fill:#ffffff"
   d="m 35.795898,19.385742 c 0.03931,-0.03589 0.07306,-0.07373 0.101258,-0.11351 0.0282,-0.03978 0.05084,-0.0815 0.06793,-0.125137 0.01709,-0.04364 0.02862,-0.0892 0.03461,-0.136673 0.006,-0.04747 0.0064,-0.09685 0.0013,-0.148117 -0.0034,-0.05151 -0.01178,-0.100403 -0.02507,-0.146698 -0.01329,-0.04629 -0.03151,-0.09 -0.05464,-0.131134 -0.02313,-0.04114 -0.05118,-0.07971 -0.08412,-0.115753 -0.03294,-0.03604 -0.07079,-0.06955 -0.11351,-0.100556 l -0.239014,-0.169678 -0.239014,-0.169677 -0.239013,-0.169678 -0.239014,-0.169678 c -0.03955,-0.02734 -0.0769,-0.05634 -0.112076,-0.08694 -0.03517,-0.03061 -0.06816,-0.06284 -0.09898,-0.09665 -0.03082,-0.03381 -0.05948,-0.06921 -0.08598,-0.10617 -0.02651,-0.03696 -0.05086,-0.07547 -0.07307,-0.115509 -0.02222,-0.04028 -0.04212,-0.08136 -0.05968,-0.1232 -0.01756,-0.04184 -0.03279,-0.08444 -0.04567,-0.127777 -0.01288,-0.04333 -0.02341,-0.0874 -0.03157,-0.132171 -0.0082,-0.04477 -0.01396,-0.09024 -0.01738,-0.136384 -0.0034,-0.04809 -0.0042,-0.09552 -0.0022,-0.142272 0.0019,-0.04675 0.0065,-0.09284 0.01381,-0.138245 0.0073,-0.04541 0.01718,-0.09015 0.02974,-0.134216 0.01256,-0.04407 0.02776,-0.08746 0.04558,-0.130188 0.01807,-0.04272 0.03815,-0.08398 0.06024,-0.12378 0.02209,-0.03979 0.0462,-0.07813 0.07233,-0.11499 0.02612,-0.03687 0.05426,-0.07226 0.08441,-0.106201 0.03015,-0.03394 0.06232,-0.06641 0.0965,-0.09741 0.03442,-0.03247 0.07007,-0.06262 0.106965,-0.09044 0.0369,-0.02782 0.07504,-0.0533 0.114471,-0.07643 0.03943,-0.02313 0.08014,-0.04392 0.122162,-0.06233 0.04202,-0.01842 0.08536,-0.03447 0.130035,-0.04814 0.04443,-0.01367 0.08911,-0.02478 0.134034,-0.03332 0.04492,-0.0085 0.09009,-0.01453 0.135498,-0.01794 0.04541,-0.0034 0.09106,-0.0043 0.136963,-0.0026 0.0459,0.0017 0.09204,0.006 0.138427,0.01282 0.04614,0.0085 0.09137,0.01923 0.135666,0.03204 0.0443,0.01282 0.08766,0.02777 0.130081,0.04486 0.04242,0.01709 0.08389,0.03632 0.124405,0.05768 0.04051,0.02136 0.08006,0.04486 0.118637,0.07049 0.03858,0.02588 0.07532,0.05365 0.11023,0.08331 0.03491,0.02966 0.06799,0.06122 0.09924,0.09467 0.03125,0.03345 0.06067,0.06879 0.08826,0.106018 0.02759,0.03723 0.05335,0.07635 0.07727,0.117371 0.01025,0.0188 0.01862,0.03784 0.02507,0.05711 0.0065,0.01927 0.011,0.03877 0.01363,0.05849 0.0026,0.01971 0.0033,0.03964 0.0021,0.05977 -0.0012,0.02013 -0.0044,0.04045 -0.0095,0.06096 -0.0051,0.02051 -0.01202,0.03973 -0.02066,0.05769 -0.0086,0.01796 -0.01901,0.03465 -0.0311,0.05009 -0.01208,0.01544 -0.02588,0.02963 -0.04135,0.04259 -0.01547,0.01296 -0.03262,0.02467 -0.05142,0.03517 -0.0188,0.01025 -0.03784,0.01855 -0.05711,0.02492 -0.01927,0.0064 -0.03877,0.01079 -0.05849,0.01329 -0.01971,0.0025 -0.03964,0.0031 -0.05977,0.0018 -0.02013,-0.0013 -0.04045,-0.0046 -0.06096,-0.0097 -0.02051,-0.0051 -0.03973,-0.01196 -0.05768,-0.02051 -0.01794,-0.0085 -0.03461,-0.0188 -0.04999,-0.03076 -0.01538,-0.01196 -0.02948,-0.02563 -0.0423,-0.04102 -0.01282,-0.01538 -0.02435,-0.03247 -0.03461,-0.05127 -0.02417,-0.04126 -0.05151,-0.07837 -0.08203,-0.111374 -0.03052,-0.033 -0.06421,-0.0619 -0.101075,-0.08675 -0.03686,-0.02484 -0.0769,-0.04562 -0.120117,-0.06239 -0.04321,-0.01677 -0.0896,-0.02953 -0.13916,-0.03832 -0.0498,-0.0085 -0.09784,-0.01172 -0.144119,-0.0095 -0.04628,0.0022 -0.09081,0.0097 -0.133591,0.0226 -0.04279,0.01288 -0.08383,0.0311 -0.123154,0.05464 -0.03932,0.02354 -0.07692,0.05241 -0.112808,0.08659 -0.03613,0.03271 -0.06732,0.06751 -0.09355,0.104401 -0.02623,0.0369 -0.0475,0.0759 -0.0638,0.117035 -0.0163,0.04114 -0.02762,0.08441 -0.03395,0.129852 -0.0063,0.04544 -0.0077,0.09305 -0.004,0.142853 0.0034,0.04956 0.01154,0.09637 0.02435,0.140427 0.01282,0.04405 0.03033,0.08534 0.05255,0.123855 0.02222,0.03851 0.04913,0.07425 0.08075,0.107193 0.03162,0.03294 0.06793,0.0631 0.108948,0.09044 l 0.239014,0.167236 0.239014,0.167237 0.239013,0.167236 0.239014,0.167236 c 0.03955,0.02905 0.07703,0.05963 0.112442,0.09172 0.03542,0.03209 0.06877,0.06569 0.100082,0.100784 0.03131,0.03509 0.06058,0.07169 0.08781,0.109757 0.02724,0.03807 0.05244,0.07762 0.07564,0.118637 0.02295,0.04126 0.04352,0.08356 0.06168,0.126892 0.01816,0.04333 0.03391,0.08771 0.04721,0.133117 0.01331,0.04541 0.02417,0.09186 0.03256,0.139344 0.0084,0.04748 0.01431,0.09601 0.01773,0.145569 0.0034,0.0498 0.0042,0.09882 0.0022,0.147049 -0.002,0.04823 -0.0066,0.09569 -0.01392,0.142379 -0.0073,0.04669 -0.01733,0.09262 -0.03003,0.137802 -0.0127,0.04518 -0.02808,0.08961 -0.04614,0.133316 -0.01782,0.0437 -0.03796,0.086 -0.06039,0.126908 -0.02243,0.04091 -0.04715,0.08043 -0.07413,0.118576 -0.02698,0.03815 -0.05621,0.07492 -0.08768,0.110336 -0.03146,0.03542 -0.06516,0.06947 -0.101044,0.102188 -0.03613,0.03418 -0.07336,0.0658 -0.111724,0.09485 -0.03836,0.02905 -0.07785,0.05554 -0.1185,0.07947 -0.04065,0.02393 -0.08246,0.04529 -0.125458,0.06409 -0.043,0.0188 -0.08719,0.03504 -0.132599,0.04871 -0.04541,0.01392 -0.09119,0.02515 -0.137299,0.03375 -0.04611,0.0086 -0.09256,0.01459 -0.139312,0.01801 -0.04675,0.0034 -0.09381,0.0043 -0.141144,0.0026 -0.04733,-0.0016 -0.09494,-0.0058 -0.142792,-0.01239 -0.0498,-0.0088 -0.09827,-0.01971 -0.145416,-0.03282 -0.04715,-0.01311 -0.09299,-0.0284 -0.137543,-0.04591 -0.04456,-0.01752 -0.08783,-0.03726 -0.129852,-0.05928 -0.04202,-0.02202 -0.08279,-0.04631 -0.122345,-0.07292 -0.03931,-0.02661 -0.07672,-0.05524 -0.112228,-0.08589 -0.03551,-0.03065 -0.06911,-0.06334 -0.100785,-0.09807 -0.03168,-0.03473 -0.06143,-0.0715 -0.08925,-0.110336 -0.02782,-0.03883 -0.0537,-0.07973 -0.07762,-0.122696 -0.01025,-0.0188 -0.01862,-0.03784 -0.02507,-0.05711 -0.0065,-0.01927 -0.011,-0.03877 -0.01363,-0.05849 -0.0026,-0.01971 -0.0033,-0.03964 -0.0021,-0.05977 0.0012,-0.02013 0.0044,-0.04045 0.0095,-0.06096 0.0051,-0.02051 0.01196,-0.03973 0.02052,-0.05768 0.0086,-0.01795 0.01885,-0.03461 0.03087,-0.04999 0.01202,-0.01538 0.02579,-0.02948 0.04131,-0.0423 0.01552,-0.01282 0.03279,-0.02435 0.05183,-0.03461 0.0188,-0.01025 0.03784,-0.01862 0.05711,-0.02507 0.01927,-0.0065 0.03877,-0.011 0.05849,-0.01363 0.01971,-0.0026 0.03964,-0.0033 0.05977,-0.0021 0.02013,0.0012 0.04045,0.0044 0.06096,0.0095 0.02051,0.0051 0.03973,0.01196 0.05768,0.02052 0.01795,0.0086 0.03461,0.01884 0.04999,0.03087 0.01538,0.01202 0.02948,0.02579 0.0423,0.04131 0.01282,0.01552 0.02435,0.03279 0.03461,0.05183 0.02759,0.04443 0.05811,0.08441 0.09158,0.119919 0.03348,0.03551 0.06992,0.06654 0.109344,0.09309 0.03943,0.02655 0.08185,0.04862 0.127289,0.06618 0.04544,0.01756 0.0939,0.03062 0.145416,0.03917 0.04956,0.0085 0.09808,0.01154 0.145569,0.009 0.04748,-0.0026 0.09393,-0.01073 0.139343,-0.02446 0.04541,-0.01373 0.08978,-0.03305 0.133118,-0.05797 0.04333,-0.02492 0.08563,-0.05543 0.126892,-0.09157 z"
   id="path25" />
		</g>
	</g>
</g>
<text
   style="font-stretch:extra-condensed;font-size:10.6667px;font-family:'Sofia Sans Extra Condensed';fill:#ffffff;stroke-width:0.301776"
   x="40.937222"
   y="14.822201"
   id="text9">H</text><text
   style="font-stretch:extra-condensed;font-size:10.6667px;font-family:'Sofia Sans Extra Condensed';fill:#ffffff;stroke-width:0.301776"
   x="45.321228"
   y="14.822201"
   id="text8">a</text><text
   style="font-stretch:extra-condensed;font-size:10.6667px;font-family:'Sofia Sans Extra Condensed';fill:#ffffff;stroke-width:0.301776"
   x="48.691905"
   y="14.822201"
   id="text7">r</text><text
   style="font-stretch:extra-condensed;font-size:10.6667px;font-family:'Sofia Sans Extra Condensed';fill:#ffffff;stroke-width:0.301776"
   x="51.070595"
   y="14.822201"
   id="text6">d</text><text
   style="font-stretch:extra-condensed;font-size:10.6667px;font-family:'Sofia Sans Extra Condensed';fill:#ffffff;stroke-width:0.301776"
   x="54.675933"
   y="14.822201"
   id="text5">w</text><text
   style="font-stretch:extra-condensed;font-size:10.6667px;font-family:'Sofia Sans Extra Condensed';fill:#ffffff;stroke-width:0.301776"
   x="59.497278"
   y="14.822201"
   id="text4">a</text><text
   style="font-stretch:extra-condensed;font-size:10.6667px;font-family:'Sofia Sans Extra Condensed';fill:#ffffff;stroke-width:0.301776"
   x="62.867954"
   y="14.822201"
   id="text3">r</text><text
   style="font-stretch:extra-condensed;font-size:10.6667px;font-family:'Sofia Sans Extra Condensed';fill:#ffffff;stroke-width:0.301776"
   x="65.246645"
   y="14.822201"
   id="text2">e</text></svg>
