<?xml version="1.0" encoding="utf-8"?>
<!-- Generator: Adobe Illustrator 24.2.3, SVG Export Plug-In . SVG Version: 6.00 Build 0)  -->
<svg version="1.1" id="Layer_1" xmlns="http://www.w3.org/2000/svg" xmlns:xlink="http://www.w3.org/1999/xlink" x="0px" y="0px"
	 viewBox="0 0 42.6 19.37" style="enable-background:new 0 0 42.6 19.37;" xml:space="preserve">
<style type="text/css">
	.st0{fill:none;stroke:#7654A2;stroke-width:1.8;stroke-linecap:round;stroke-linejoin:round;stroke-miterlimit:10;}
	.st1{fill:none;stroke:#00ABE1;stroke-width:1.8;stroke-linecap:round;stroke-linejoin:round;stroke-miterlimit:10;}
	.st2{fill:none;stroke:#F79929;stroke-width:1.8;stroke-linecap:round;stroke-linejoin:round;stroke-miterlimit:10;}
	.st3{fill:none;stroke:#F06022;stroke-width:1.8;stroke-linecap:round;stroke-linejoin:round;stroke-miterlimit:10;}
	.st4{fill:none;stroke:#527C60;stroke-width:1.8;stroke-linecap:round;stroke-linejoin:round;stroke-miterlimit:10;}
	.st5{fill:none;stroke:#6CB845;stroke-width:1.8;stroke-linecap:round;stroke-linejoin:round;stroke-miterlimit:10;}
	.st6{fill:none;stroke:#3387C8;stroke-width:1.8;stroke-linecap:round;stroke-linejoin:round;stroke-miterlimit:10;}
	.st7{fill:none;stroke:#0C649B;stroke-width:1.8;stroke-linecap:round;stroke-linejoin:round;stroke-miterlimit:10;}
	.st8{fill:none;stroke:#9D7CB7;stroke-width:1.8;stroke-linecap:round;stroke-linejoin:round;stroke-miterlimit:10;}
	.st9{fill:none;stroke:#6D2772;stroke-width:1.8;stroke-linecap:round;stroke-linejoin:round;stroke-miterlimit:10;}
</style>
<path class="st0" d="M12.96,10.61c0,2.47-2,4.48-4.48,4.48"/>
<line class="st1" x1="22.94" y1="15.34" x2="22.94" y2="8.59"/>
<line class="st2" x1="37.48" y1="15.34" x2="29.67" y2="3.06"/>
<line class="st3" x1="36.77" y1="4.43" x2="29.67" y2="12.86"/>
<line class="st4" x1="26.31" y1="15.34" x2="26.31" y2="10.61"/>
<line class="st5" x1="26.31" y1="3.3" x2="26.31" y2="3.06"/>
<g>
	<line class="st6" x1="16.04" y1="10.61" x2="16.04" y2="4.98"/>
	<g>
		<path class="st6" d="M16.04,8.59c0-1.63,1.54-2.95,3.45-2.95s3.45,1.32,3.45,2.95"/>
	</g>
</g>
<polyline class="st7" points="16.04,15.34 16.04,14.71 16.04,10.61 "/>
<line class="st5" x1="26.31" y1="10.61" x2="26.31" y2="6.42"/>
<path class="st8" d="M8.49,6.13c2.47,0,4.48,2,4.48,4.48"/>
<path class="st0" d="M4.01,10.61c0-2.47,2-4.48,4.48-4.48"/>
<path class="st9" d="M8.49,15.08c-2.47,0-4.48-2-4.48-4.48"/>
</svg>
