<?xml version="1.0" encoding="utf-8"?>
<!-- Generator: Adobe Illustrator 24.2.3, SVG Export Plug-In . SVG Version: 6.00 Build 0)  -->
<svg version="1.1" xmlns="http://www.w3.org/2000/svg" xmlns:xlink="http://www.w3.org/1999/xlink" x="0px" y="0px"
	 viewBox="0 0 38.1 22.6" style="enable-background:new 0 0 38.1 22.6;" xml:space="preserve">
<style type="text/css">
	.st0{fill:none;stroke:#9322FF;stroke-width:1.8;stroke-linecap:round;stroke-linejoin:round;stroke-miterlimit:10;}
	.st1{fill:none;stroke:#00ADE2;stroke-width:1.8;stroke-linecap:round;stroke-linejoin:round;stroke-miterlimit:10;}
	.st2{fill:none;stroke:#FF9B24;stroke-width:1.8;stroke-linecap:round;stroke-linejoin:round;stroke-miterlimit:10;}
	.st3{fill:none;stroke:#F95E19;stroke-width:1.8;stroke-linecap:round;stroke-linejoin:round;stroke-miterlimit:10;}
	.st4{fill:none;stroke:#517C60;stroke-width:1.8;stroke-linecap:round;stroke-linejoin:round;stroke-miterlimit:10;}
	.st5{fill:none;stroke:#6DBA00;stroke-width:1.8;stroke-linecap:round;stroke-linejoin:round;stroke-miterlimit:10;}
	.st6{fill:none;stroke:#008CE2;stroke-width:1.8;stroke-linecap:round;stroke-linejoin:round;stroke-miterlimit:10;}
	.st7{fill:none;stroke:#10639B;stroke-width:1.8;stroke-linecap:round;stroke-linejoin:round;stroke-miterlimit:10;}
	.st8{fill:none;stroke:#BA78F9;stroke-width:1.8;stroke-linecap:round;stroke-linejoin:round;stroke-miterlimit:10;}
	.st9{fill:none;stroke:#6F1472;stroke-width:1.8;stroke-linecap:round;stroke-linejoin:round;stroke-miterlimit:10;}
	.st10{fill:#444444;}
	.st11{font-family:'Miso';}
	.st12{font-size:10.4862px;}
</style>
<g id="Layer_1">
</g>
<g id="Layer_2">
	<path class="st0" d="M10.9,8.7c0,2.4-2,4.4-4.4,4.4"/>
	<line class="st1" x1="20.7" y1="13.3" x2="20.7" y2="6.7"/>
	<line class="st2" x1="35" y1="13.3" x2="27.3" y2="1.3"/>
	<line class="st3" x1="34.3" y1="2.6" x2="27.3" y2="10.9"/>
	<line class="st4" x1="24" y1="13.3" x2="24" y2="8.7"/>
	<line class="st5" x1="24" y1="1.5" x2="24" y2="1.3"/>
	<g>
		<line class="st6" x1="13.9" y1="8.7" x2="13.9" y2="3.8"/>
		<g>
			<path class="st6" d="M13.9,6.7c0-1.6,1.5-2.9,3.4-2.9s3.4,1.3,3.4,2.9"/>
		</g>
	</g>
	<polyline class="st7" points="13.9,13.3 13.9,12.7 13.9,8.7 	"/>
	<line class="st5" x1="24" y1="8.7" x2="24" y2="4.6"/>
	<path class="st8" d="M6.5,4.3c2.4,0,4.4,2,4.4,4.4"/>
	<path class="st0" d="M2.1,8.7c0-2.4,2-4.4,4.4-4.4"/>
	<path class="st9" d="M6.5,13.1c-2.4,0-4.4-2-4.4-4.4"/>
	<text transform="matrix(1 0 0 1 1.1615 20.3248)"><tspan x="0" y="0" class="st10 st11 st12">open</tspan><tspan x="14.7" y="0" class="st10 st11 st12"> </tspan><tspan x="17.3" y="0" class="st10 st11 st12">ephys</tspan></text>
</g>
</svg>
