<?xml version="1.0" standalone="yes"?><!DOCTYPE svg PUBLIC "-//W3C//DTD SVG 1.1//EN" "http://www.w3.org/Graphics/SVG/1.1/DTD/svg11.dtd"[
<!ENTITY E9 'matrix(1.00 0.00 0.00 1.00 0.00 0.00 ) '><!ENTITY E3 'matrix(1.00 0.00 0.00 1.00 4.00 4.00 ) '><!ENTITY E5 'stroke:none;fill-rule:evenodd;opacity:1;fill:rgb(255,255,255);'>
]><svg width="70.85854" height="66.65038" id="SvgGdi_output" xmlns="http://www.w3.org/2000/svg"><rect id="background" height="100.00%" style="fill:rgb(255,255,255);" width="100.00%" y="0.00" x="0.00" /><g style="shape-rendering:auto;" id="root_group"><path transform="&E3;" id="45" d="M 31.179 5.2 C 34.9985 11.0918 34.9814 18.682 31.13552 24.557 " style="stroke:rgb(169,169,169);fill:none;stroke-linecap:butt;stroke-miterlimit:9;opacity:1;stroke-width:2;stroke-linejoin:miter;" /><ellipse id="46" cy="15.00" cx="15.00" transform="&E3;" rx="15.00" ry="15.00" style="stroke:none;opacity:1;fill:rgb(91,178,126);" /><path d="M 9.986 7.167 20.014 22.832 " style="&E5;" transform="&E3;" id="47" /><path style="&E5;" transform="&E3;" id="48" d="M 20.017 24.533 C 19.455 24.533 18.907 24.256 18.582 23.75 L 8.553 8.084 C 8.047001 7.292 8.278001 6.241 9.069 5.734 9.860001 5.228 10.912 5.459 11.419 6.25 L 21.447 21.915 C 21.955 22.706 21.724 23.758 20.931 24.265 20.646 24.447 20.33 24.533 20.017 24.533 z " /><path d="M 19.6 8.762 10.4 19.644 " style="&E5;" transform="&E3;" id="49" /><path style="&E5;" transform="&E3;" id="50" d="M 10.399 21.344 C 10.011 21.344 9.621 21.213 9.302 20.943 8.584 20.337 8.495 19.264 9.101 18.547 L 18.301 7.665001 C 18.908 6.947001 19.981 6.857001 20.698 7.463001 21.416 8.069001 21.505 9.143001 20.899 9.860001 L 11.699 20.742 C 11.363 21.14 10.882 21.344 10.399 21.344 z " /><text id="51" transform="&E9;" x="4.00" y="39.00" style="stroke:none;clip-path:url(#53_text_clipper);font-family:Microsoft Sans Serif;fill:rgb(0,0,0);font-size:8.25pt;opacity:1;"><tspan dy="8.25pt" id="55">ONI Context</tspan></text><text id="57" transform="&E9;" x="4.00" y="51.45" style="stroke:none;clip-path:url(#59_text_clipper);font-family:Microsoft Sans Serif;fill:rgb(0,0,0);font-size:8.25pt;opacity:1;"><tspan dy="8.25pt" id="61">(riffa,0)</tspan></text></g><defs id="clips_hatches_and_gradients"><clipPath id="53_text_clipper"><rect x="4.00" y="39.00" width="65.86" height="27.65" id="54" /></clipPath><clipPath id="59_text_clipper"><rect x="4.00" y="51.45" width="65.86" height="27.65" id="60" /></clipPath></defs></svg>